<svg width="1363" height="163" viewBox="0 0 1363 163" fill="none" xmlns="http://www.w3.org/2000/svg">
<path d="M0 15C0 6.71573 6.71573 0 15 0H37V163H15C6.71573 163 0 156.284 0 148V15Z" fill="#1D2126"/>
<rect width="1097" height="163" transform="translate(37)" fill="#F0F0F0"/>
<path d="M101.906 53.9219L94.3945 51.2383V48.0859L104.602 52.375V54.6367L101.906 53.9219ZM94.3945 56.1719L101.918 53.4297L104.602 52.7852V55.0352L94.3945 59.3242V56.1719ZM122.32 43.9375H125.824V55.2109C125.824 56.5234 125.543 57.6289 124.98 58.5273C124.426 59.4258 123.656 60.1016 122.672 60.5547C121.695 61.0078 120.57 61.2344 119.297 61.2344C118.023 61.2344 116.891 61.0078 115.898 60.5547C114.914 60.1016 114.141 59.4258 113.578 58.5273C113.023 57.6289 112.746 56.5234 112.746 55.2109V43.9375H116.262V55.2109C116.262 55.9766 116.383 56.6016 116.625 57.0859C116.867 57.5703 117.215 57.9258 117.668 58.1523C118.129 58.3789 118.672 58.4922 119.297 58.4922C119.938 58.4922 120.48 58.3789 120.926 58.1523C121.379 57.9258 121.723 57.5703 121.957 57.0859C122.199 56.6016 122.32 55.9766 122.32 55.2109V43.9375ZM131.812 51.0273V61H128.438V48.3203H131.602L131.812 51.0273ZM131.32 54.2148H130.406C130.406 53.2773 130.527 52.4336 130.77 51.6836C131.012 50.9258 131.352 50.2812 131.789 49.75C132.227 49.2109 132.746 48.8008 133.348 48.5195C133.957 48.2305 134.637 48.0859 135.387 48.0859C135.98 48.0859 136.523 48.1719 137.016 48.3438C137.508 48.5156 137.93 48.7891 138.281 49.1641C138.641 49.5391 138.914 50.0352 139.102 50.6523C139.297 51.2695 139.395 52.0234 139.395 52.9141V61H135.996V52.9023C135.996 52.3398 135.918 51.9023 135.762 51.5898C135.605 51.2773 135.375 51.0586 135.07 50.9336C134.773 50.8008 134.406 50.7344 133.969 50.7344C133.516 50.7344 133.121 50.8242 132.785 51.0039C132.457 51.1836 132.184 51.4336 131.965 51.7539C131.754 52.0664 131.594 52.4336 131.484 52.8555C131.375 53.2773 131.32 53.7305 131.32 54.2148ZM145.523 48.3203V61H142.137V48.3203H145.523ZM141.926 45.0156C141.926 44.5234 142.098 44.1172 142.441 43.7969C142.785 43.4766 143.246 43.3164 143.824 43.3164C144.395 43.3164 144.852 43.4766 145.195 43.7969C145.547 44.1172 145.723 44.5234 145.723 45.0156C145.723 45.5078 145.547 45.9141 145.195 46.2344C144.852 46.5547 144.395 46.7148 143.824 46.7148C143.246 46.7148 142.785 46.5547 142.441 46.2344C142.098 45.9141 141.926 45.5078 141.926 45.0156ZM158.414 55.3398H161.918C161.848 56.4883 161.531 57.5078 160.969 58.3984C160.414 59.2891 159.637 59.9844 158.637 60.4844C157.645 60.9844 156.449 61.2344 155.051 61.2344C153.957 61.2344 152.977 61.0469 152.109 60.6719C151.242 60.2891 150.5 59.7422 149.883 59.0312C149.273 58.3203 148.809 57.4609 148.488 56.4531C148.168 55.4453 148.008 54.3164 148.008 53.0664V51.8828C148.008 50.6328 148.172 49.5039 148.5 48.4961C148.836 47.4805 149.312 46.6172 149.93 45.9062C150.555 45.1953 151.301 44.6484 152.168 44.2656C153.035 43.8828 154.004 43.6914 155.074 43.6914C156.496 43.6914 157.695 43.9492 158.672 44.4648C159.656 44.9805 160.418 45.6914 160.957 46.5977C161.504 47.5039 161.832 48.5352 161.941 49.6914H158.426C158.387 49.0039 158.25 48.4219 158.016 47.9453C157.781 47.4609 157.426 47.0977 156.949 46.8555C156.48 46.6055 155.855 46.4805 155.074 46.4805C154.488 46.4805 153.977 46.5898 153.539 46.8086C153.102 47.0273 152.734 47.3594 152.438 47.8047C152.141 48.25 151.918 48.8125 151.77 49.4922C151.629 50.1641 151.559 50.9531 151.559 51.8594V53.0664C151.559 53.9492 151.625 54.7266 151.758 55.3984C151.891 56.0625 152.094 56.625 152.367 57.0859C152.648 57.5391 153.008 57.8828 153.445 58.1172C153.891 58.3438 154.426 58.457 155.051 58.457C155.785 58.457 156.391 58.3398 156.867 58.1055C157.344 57.8711 157.707 57.5234 157.957 57.0625C158.215 56.6016 158.367 56.0273 158.414 55.3398ZM163.477 54.7891V54.543C163.477 53.6133 163.609 52.7578 163.875 51.9766C164.141 51.1875 164.527 50.5039 165.035 49.9258C165.543 49.3477 166.168 48.8984 166.91 48.5781C167.652 48.25 168.504 48.0859 169.465 48.0859C170.426 48.0859 171.281 48.25 172.031 48.5781C172.781 48.8984 173.41 49.3477 173.918 49.9258C174.434 50.5039 174.824 51.1875 175.09 51.9766C175.355 52.7578 175.488 53.6133 175.488 54.543V54.7891C175.488 55.7109 175.355 56.5664 175.09 57.3555C174.824 58.1367 174.434 58.8203 173.918 59.4062C173.41 59.9844 172.785 60.4336 172.043 60.7539C171.301 61.0742 170.449 61.2344 169.488 61.2344C168.527 61.2344 167.672 61.0742 166.922 60.7539C166.18 60.4336 165.551 59.9844 165.035 59.4062C164.527 58.8203 164.141 58.1367 163.875 57.3555C163.609 56.5664 163.477 55.7109 163.477 54.7891ZM166.852 54.543V54.7891C166.852 55.3203 166.898 55.8164 166.992 56.2773C167.086 56.7383 167.234 57.1445 167.438 57.4961C167.648 57.8398 167.922 58.1094 168.258 58.3047C168.594 58.5 169.004 58.5977 169.488 58.5977C169.957 58.5977 170.359 58.5 170.695 58.3047C171.031 58.1094 171.301 57.8398 171.504 57.4961C171.707 57.1445 171.855 56.7383 171.949 56.2773C172.051 55.8164 172.102 55.3203 172.102 54.7891V54.543C172.102 54.0273 172.051 53.543 171.949 53.0898C171.855 52.6289 171.703 52.2227 171.492 51.8711C171.289 51.5117 171.02 51.2305 170.684 51.0273C170.348 50.8242 169.941 50.7227 169.465 50.7227C168.988 50.7227 168.582 50.8242 168.246 51.0273C167.918 51.2305 167.648 51.5117 167.438 51.8711C167.234 52.2227 167.086 52.6289 166.992 53.0898C166.898 53.543 166.852 54.0273 166.852 54.543ZM180.867 51.0273V61H177.492V48.3203H180.656L180.867 51.0273ZM180.375 54.2148H179.461C179.461 53.2773 179.582 52.4336 179.824 51.6836C180.066 50.9258 180.406 50.2812 180.844 49.75C181.281 49.2109 181.801 48.8008 182.402 48.5195C183.012 48.2305 183.691 48.0859 184.441 48.0859C185.035 48.0859 185.578 48.1719 186.07 48.3438C186.562 48.5156 186.984 48.7891 187.336 49.1641C187.695 49.5391 187.969 50.0352 188.156 50.6523C188.352 51.2695 188.449 52.0234 188.449 52.9141V61H185.051V52.9023C185.051 52.3398 184.973 51.9023 184.816 51.5898C184.66 51.2773 184.43 51.0586 184.125 50.9336C183.828 50.8008 183.461 50.7344 183.023 50.7344C182.57 50.7344 182.176 50.8242 181.84 51.0039C181.512 51.1836 181.238 51.4336 181.02 51.7539C180.809 52.0664 180.648 52.4336 180.539 52.8555C180.43 53.2773 180.375 53.7305 180.375 54.2148ZM194.32 51.0273V61H190.945V48.3203H194.109L194.32 51.0273ZM193.828 54.2148H192.914C192.914 53.2773 193.035 52.4336 193.277 51.6836C193.52 50.9258 193.859 50.2812 194.297 49.75C194.734 49.2109 195.254 48.8008 195.855 48.5195C196.465 48.2305 197.145 48.0859 197.895 48.0859C198.488 48.0859 199.031 48.1719 199.523 48.3438C200.016 48.5156 200.438 48.7891 200.789 49.1641C201.148 49.5391 201.422 50.0352 201.609 50.6523C201.805 51.2695 201.902 52.0234 201.902 52.9141V61H198.504V52.9023C198.504 52.3398 198.426 51.9023 198.27 51.5898C198.113 51.2773 197.883 51.0586 197.578 50.9336C197.281 50.8008 196.914 50.7344 196.477 50.7344C196.023 50.7344 195.629 50.8242 195.293 51.0039C194.965 51.1836 194.691 51.4336 194.473 51.7539C194.262 52.0664 194.102 52.4336 193.992 52.8555C193.883 53.2773 193.828 53.7305 193.828 54.2148ZM210.305 61.2344C209.32 61.2344 208.438 61.0781 207.656 60.7656C206.875 60.4453 206.211 60.0039 205.664 59.4414C205.125 58.8789 204.711 58.2266 204.422 57.4844C204.133 56.7344 203.988 55.9375 203.988 55.0938V54.625C203.988 53.6641 204.125 52.7852 204.398 51.9883C204.672 51.1914 205.062 50.5 205.57 49.9141C206.086 49.3281 206.711 48.8789 207.445 48.5664C208.18 48.2461 209.008 48.0859 209.93 48.0859C210.828 48.0859 211.625 48.2344 212.32 48.5312C213.016 48.8281 213.598 49.25 214.066 49.7969C214.543 50.3438 214.902 51 215.145 51.7656C215.387 52.5234 215.508 53.3672 215.508 54.2969V55.7031H205.43V53.4531H212.191V53.1953C212.191 52.7266 212.105 52.3086 211.934 51.9414C211.77 51.5664 211.52 51.2695 211.184 51.0508C210.848 50.832 210.418 50.7227 209.895 50.7227C209.449 50.7227 209.066 50.8203 208.746 51.0156C208.426 51.2109 208.164 51.4844 207.961 51.8359C207.766 52.1875 207.617 52.6016 207.516 53.0781C207.422 53.5469 207.375 54.0625 207.375 54.625V55.0938C207.375 55.6016 207.445 56.0703 207.586 56.5C207.734 56.9297 207.941 57.3008 208.207 57.6133C208.48 57.9258 208.809 58.168 209.191 58.3398C209.582 58.5117 210.023 58.5977 210.516 58.5977C211.125 58.5977 211.691 58.4805 212.215 58.2461C212.746 58.0039 213.203 57.6406 213.586 57.1562L215.227 58.9375C214.961 59.3203 214.598 59.6875 214.137 60.0391C213.684 60.3906 213.137 60.6797 212.496 60.9062C211.855 61.125 211.125 61.2344 210.305 61.2344ZM222.668 58.5977C223.082 58.5977 223.449 58.5195 223.77 58.3633C224.09 58.1992 224.34 57.9727 224.52 57.6836C224.707 57.3867 224.805 57.0391 224.812 56.6406H227.988C227.98 57.5312 227.742 58.3242 227.273 59.0195C226.805 59.707 226.176 60.25 225.387 60.6484C224.598 61.0391 223.715 61.2344 222.738 61.2344C221.754 61.2344 220.895 61.0703 220.16 60.7422C219.434 60.4141 218.828 59.9609 218.344 59.3828C217.859 58.7969 217.496 58.1172 217.254 57.3438C217.012 56.5625 216.891 55.7266 216.891 54.8359V54.4961C216.891 53.5977 217.012 52.7617 217.254 51.9883C217.496 51.207 217.859 50.5273 218.344 49.9492C218.828 49.3633 219.434 48.9062 220.16 48.5781C220.887 48.25 221.738 48.0859 222.715 48.0859C223.754 48.0859 224.664 48.2852 225.445 48.6836C226.234 49.082 226.852 49.6523 227.297 50.3945C227.75 51.1289 227.98 52 227.988 53.0078H224.812C224.805 52.5859 224.715 52.2031 224.543 51.8594C224.379 51.5156 224.137 51.2422 223.816 51.0391C223.504 50.8281 223.117 50.7227 222.656 50.7227C222.164 50.7227 221.762 50.8281 221.449 51.0391C221.137 51.2422 220.895 51.5234 220.723 51.8828C220.551 52.2344 220.43 52.6367 220.359 53.0898C220.297 53.5352 220.266 54.0039 220.266 54.4961V54.8359C220.266 55.3281 220.297 55.8008 220.359 56.2539C220.422 56.707 220.539 57.1094 220.711 57.4609C220.891 57.8125 221.137 58.0898 221.449 58.293C221.762 58.4961 222.168 58.5977 222.668 58.5977ZM236.156 48.3203V50.7109H228.773V48.3203H236.156ZM230.602 45.1914H233.977V57.1797C233.977 57.5469 234.023 57.8281 234.117 58.0234C234.219 58.2188 234.367 58.3555 234.562 58.4336C234.758 58.5039 235.004 58.5391 235.301 58.5391C235.512 58.5391 235.699 58.5312 235.863 58.5156C236.035 58.4922 236.18 58.4688 236.297 58.4453L236.309 60.9297C236.02 61.0234 235.707 61.0977 235.371 61.1523C235.035 61.207 234.664 61.2344 234.258 61.2344C233.516 61.2344 232.867 61.1133 232.312 60.8711C231.766 60.6211 231.344 60.2227 231.047 59.6758C230.75 59.1289 230.602 58.4102 230.602 57.5195V45.1914Z" fill="#888888"/>
<path d="M106.688 119H99.1172L99.1641 112.672H106.688C108.25 112.672 109.57 112.297 110.648 111.547C111.742 110.797 112.57 109.68 113.133 108.195C113.711 106.695 114 104.852 114 102.664V101.188C114 99.5469 113.836 98.1094 113.508 96.875C113.195 95.625 112.727 94.5859 112.102 93.7578C111.477 92.9141 110.695 92.2812 109.758 91.8594C108.836 91.4375 107.773 91.2266 106.57 91.2266H98.9766V84.875H106.57C108.883 84.875 111 85.2734 112.922 86.0703C114.859 86.8516 116.531 87.9766 117.938 89.4453C119.359 90.8984 120.453 92.625 121.219 94.625C122 96.6094 122.391 98.8125 122.391 101.234V102.664C122.391 105.07 122 107.273 121.219 109.273C120.453 111.273 119.367 113 117.961 114.453C116.555 115.906 114.891 117.031 112.969 117.828C111.062 118.609 108.969 119 106.688 119ZM103.828 84.875V119H95.6016V84.875H103.828ZM138.586 119.469C136.523 119.469 134.68 119.148 133.055 118.508C131.43 117.852 130.055 116.953 128.93 115.812C127.82 114.672 126.969 113.359 126.375 111.875C125.797 110.391 125.508 108.82 125.508 107.164V106.273C125.508 104.414 125.766 102.695 126.281 101.117C126.797 99.5234 127.562 98.1328 128.578 96.9453C129.594 95.7578 130.867 94.8359 132.398 94.1797C133.93 93.5078 135.711 93.1719 137.742 93.1719C139.539 93.1719 141.148 93.4609 142.57 94.0391C143.992 94.6172 145.195 95.4453 146.18 96.5234C147.18 97.6016 147.938 98.9062 148.453 100.438C148.984 101.969 149.25 103.688 149.25 105.594V108.805H128.531V103.859H141.539V103.25C141.555 102.406 141.406 101.688 141.094 101.094C140.797 100.5 140.359 100.047 139.781 99.7344C139.203 99.4219 138.5 99.2656 137.672 99.2656C136.812 99.2656 136.102 99.4531 135.539 99.8281C134.992 100.203 134.562 100.719 134.25 101.375C133.953 102.016 133.742 102.758 133.617 103.602C133.492 104.445 133.43 105.336 133.43 106.273V107.164C133.43 108.102 133.555 108.953 133.805 109.719C134.07 110.484 134.445 111.141 134.93 111.688C135.43 112.219 136.023 112.633 136.711 112.93C137.414 113.227 138.211 113.375 139.102 113.375C140.18 113.375 141.242 113.172 142.289 112.766C143.336 112.359 144.234 111.688 144.984 110.75L148.57 115.016C148.055 115.75 147.32 116.461 146.367 117.148C145.43 117.836 144.305 118.398 142.992 118.836C141.68 119.258 140.211 119.469 138.586 119.469ZM160.43 99.0078V119H152.531V93.6406H159.938L160.43 99.0078ZM159.469 105.453L157.664 105.5C157.664 103.719 157.875 102.078 158.297 100.578C158.719 99.0781 159.344 97.7734 160.172 96.6641C161 95.5547 162.016 94.6953 163.219 94.0859C164.438 93.4766 165.844 93.1719 167.438 93.1719C168.547 93.1719 169.555 93.3438 170.461 93.6875C171.367 94.0156 172.148 94.5391 172.805 95.2578C173.461 95.9609 173.961 96.8828 174.305 98.0234C174.664 99.1484 174.844 100.5 174.844 102.078V119H166.945V103.086C166.945 102.008 166.82 101.195 166.57 100.648C166.336 100.102 165.992 99.7344 165.539 99.5469C165.086 99.3594 164.531 99.2656 163.875 99.2656C163.188 99.2656 162.57 99.4219 162.023 99.7344C161.477 100.047 161.008 100.484 160.617 101.047C160.242 101.594 159.953 102.242 159.75 102.992C159.562 103.742 159.469 104.562 159.469 105.453ZM173.953 105.453L171.75 105.5C171.75 103.719 171.945 102.078 172.336 100.578C172.742 99.0781 173.344 97.7734 174.141 96.6641C174.953 95.5547 175.961 94.6953 177.164 94.0859C178.367 93.4766 179.766 93.1719 181.359 93.1719C182.516 93.1719 183.578 93.3438 184.547 93.6875C185.516 94.0312 186.352 94.5859 187.055 95.3516C187.758 96.1172 188.305 97.1328 188.695 98.3984C189.086 99.6484 189.281 101.195 189.281 103.039V119H181.359V103.039C181.359 101.992 181.234 101.203 180.984 100.672C180.75 100.125 180.406 99.7578 179.953 99.5703C179.5 99.3672 178.961 99.2656 178.336 99.2656C177.586 99.2656 176.938 99.4219 176.391 99.7344C175.844 100.047 175.383 100.484 175.008 101.047C174.648 101.594 174.383 102.242 174.211 102.992C174.039 103.742 173.953 104.562 173.953 105.453ZM192.82 106.578V106.086C192.82 104.227 193.086 102.516 193.617 100.953C194.148 99.375 194.93 98.0078 195.961 96.8516C196.992 95.6953 198.266 94.7969 199.781 94.1562C201.297 93.5 203.047 93.1719 205.031 93.1719C207.031 93.1719 208.789 93.5 210.305 94.1562C211.836 94.7969 213.117 95.6953 214.148 96.8516C215.18 98.0078 215.961 99.375 216.492 100.953C217.023 102.516 217.289 104.227 217.289 106.086V106.578C217.289 108.422 217.023 110.133 216.492 111.711C215.961 113.273 215.18 114.641 214.148 115.812C213.117 116.969 211.844 117.867 210.328 118.508C208.812 119.148 207.062 119.469 205.078 119.469C203.094 119.469 201.336 119.148 199.805 118.508C198.273 117.867 196.992 116.969 195.961 115.812C194.93 114.641 194.148 113.273 193.617 111.711C193.086 110.133 192.82 108.422 192.82 106.578ZM200.719 106.086V106.578C200.719 107.531 200.789 108.422 200.93 109.25C201.07 110.078 201.305 110.805 201.633 111.43C201.961 112.039 202.406 112.516 202.969 112.859C203.531 113.203 204.234 113.375 205.078 113.375C205.906 113.375 206.594 113.203 207.141 112.859C207.703 112.516 208.148 112.039 208.477 111.43C208.805 110.805 209.039 110.078 209.18 109.25C209.32 108.422 209.391 107.531 209.391 106.578V106.086C209.391 105.164 209.32 104.297 209.18 103.484C209.039 102.656 208.805 101.93 208.477 101.305C208.148 100.664 207.703 100.164 207.141 99.8047C206.578 99.4453 205.875 99.2656 205.031 99.2656C204.203 99.2656 203.508 99.4453 202.945 99.8047C202.398 100.164 201.961 100.664 201.633 101.305C201.305 101.93 201.07 102.656 200.93 103.484C200.789 104.297 200.719 105.164 200.719 106.086Z" fill="#1D2126"/>
<path d="M1134 0H1348C1356.28 0 1363 6.71573 1363 15V148C1363 156.284 1356.28 163 1348 163H1134V0Z" fill="#0E80D4"/>
<path d="M1281 46.5H1216L1213.5 49V114L1216 116.5H1281L1283.5 114V49L1281 46.5ZM1278.5 111.5H1233.5V101.5H1245C1246.5 104.5 1250 106.5 1253.5 106.5C1259 106.5 1263.5 102 1263.5 96.5C1263.5 91 1259 86.5 1253.5 86.5C1248 86.5 1243.5 91 1243.5 96.5H1228.5V111.5H1218.5V51.5H1228.5V63C1225.5 64.5 1223.5 68 1223.5 71.5C1223.5 77 1228 81.5 1233.5 81.5C1239 81.5 1243.5 77 1243.5 71.5H1253.5C1253.5 77 1258 81.5 1263.5 81.5C1269 81.5 1273.5 77 1273.5 71.5C1273.5 66 1269 61.5 1263.5 61.5C1260 61.5 1256.5 63.5 1255 66.5H1242C1240.5 63.5 1237 61.5 1233.5 61.5V51.5H1278.5V111.5ZM1248.5 96.5C1248.5 93.5 1250.5 91.5 1253.5 91.5C1256.5 91.5 1258.5 93.5 1258.5 96.5C1258.5 99.5 1256.5 101.5 1253.5 101.5C1250.5 101.5 1248.5 99.5 1248.5 96.5ZM1233.5 66.5C1236.5 66.5 1238.5 68.5 1238.5 71.5C1238.5 74.5 1236.5 76.5 1233.5 76.5C1230.5 76.5 1228.5 74.5 1228.5 71.5C1228.5 68.5 1230.5 66.5 1233.5 66.5ZM1263.5 66.5C1266.5 66.5 1268.5 68.5 1268.5 71.5C1268.5 74.5 1266.5 76.5 1263.5 76.5C1260.5 76.5 1258.5 74.5 1258.5 71.5C1258.5 68.5 1260.5 66.5 1263.5 66.5Z" fill="white"/>
</svg>
