<svg width="1384" height="163" viewBox="0 0 1384 163" fill="none" xmlns="http://www.w3.org/2000/svg">
<path d="M0 15C0 6.71573 6.71573 0 15 0H37V163H15C6.71573 163 0 156.284 0 148V15Z" fill="#1D2126"/>
<path d="M1131 0H37V163H1131V0Z" fill="#F0F0F0"/>
<path d="M112.125 84.875V119H103.898V84.875H112.125ZM122.391 84.875V91.2266H93.8672V84.875H122.391ZM134.695 112.625V102.172C134.695 101.453 134.594 100.836 134.391 100.32C134.188 99.8047 133.867 99.4062 133.43 99.125C132.992 98.8281 132.406 98.6797 131.672 98.6797C131.078 98.6797 130.57 98.7812 130.148 98.9844C129.727 99.1875 129.406 99.4922 129.188 99.8984C128.969 100.305 128.859 100.82 128.859 101.445H120.961C120.961 100.273 121.219 99.1875 121.734 98.1875C122.266 97.1719 123.016 96.2891 123.984 95.5391C124.969 94.7891 126.141 94.2109 127.5 93.8047C128.875 93.3828 130.406 93.1719 132.094 93.1719C134.109 93.1719 135.906 93.5078 137.484 94.1797C139.078 94.8516 140.336 95.8594 141.258 97.2031C142.18 98.5312 142.641 100.203 142.641 102.219V112.602C142.641 114.258 142.734 115.516 142.922 116.375C143.109 117.219 143.375 117.961 143.719 118.602V119H135.797C135.422 118.219 135.141 117.266 134.953 116.141C134.781 115 134.695 113.828 134.695 112.625ZM135.656 103.508L135.703 107.727H132.211C131.477 107.727 130.852 107.828 130.336 108.031C129.836 108.234 129.43 108.516 129.117 108.875C128.82 109.219 128.602 109.609 128.461 110.047C128.336 110.484 128.273 110.945 128.273 111.43C128.273 111.898 128.383 112.32 128.602 112.695C128.836 113.055 129.148 113.336 129.539 113.539C129.93 113.742 130.367 113.844 130.852 113.844C131.727 113.844 132.469 113.68 133.078 113.352C133.703 113.008 134.18 112.594 134.508 112.109C134.836 111.625 135 111.172 135 110.75L136.734 113.984C136.422 114.609 136.062 115.242 135.656 115.883C135.266 116.523 134.773 117.117 134.18 117.664C133.602 118.195 132.891 118.633 132.047 118.977C131.203 119.305 130.18 119.469 128.977 119.469C127.414 119.469 125.977 119.148 124.664 118.508C123.367 117.867 122.328 116.977 121.547 115.836C120.766 114.68 120.375 113.352 120.375 111.852C120.375 110.539 120.609 109.367 121.078 108.336C121.562 107.305 122.289 106.43 123.258 105.711C124.227 104.992 125.461 104.445 126.961 104.07C128.461 103.695 130.227 103.508 132.258 103.508H135.656ZM147.094 83H154.992V112.766L154.172 119H147.094V83ZM170.555 106.039V106.531C170.555 108.453 170.359 110.203 169.969 111.781C169.578 113.359 168.977 114.727 168.164 115.883C167.352 117.023 166.328 117.906 165.094 118.531C163.859 119.156 162.398 119.469 160.711 119.469C159.18 119.469 157.867 119.141 156.773 118.484C155.68 117.812 154.766 116.891 154.031 115.719C153.297 114.531 152.703 113.164 152.25 111.617C151.797 110.055 151.438 108.383 151.172 106.602V106.016C151.438 104.25 151.797 102.594 152.25 101.047C152.703 99.4844 153.297 98.1172 154.031 96.9453C154.766 95.7578 155.672 94.8359 156.75 94.1797C157.844 93.5078 159.148 93.1719 160.664 93.1719C162.367 93.1719 163.836 93.4922 165.07 94.1328C166.32 94.7734 167.352 95.6719 168.164 96.8281C168.977 97.9844 169.578 99.3438 169.969 100.906C170.359 102.469 170.555 104.18 170.555 106.039ZM162.656 106.531V106.039C162.656 105.117 162.602 104.25 162.492 103.438C162.383 102.625 162.188 101.906 161.906 101.281C161.625 100.656 161.227 100.164 160.711 99.8047C160.195 99.4453 159.523 99.2656 158.695 99.2656C157.852 99.2656 157.141 99.4062 156.562 99.6875C156 99.9688 155.547 100.375 155.203 100.906C154.875 101.422 154.641 102.062 154.5 102.828C154.359 103.578 154.297 104.43 154.312 105.383V107.234C154.281 108.531 154.398 109.641 154.664 110.562C154.93 111.484 155.391 112.188 156.047 112.672C156.703 113.156 157.602 113.398 158.742 113.398C159.586 113.398 160.266 113.234 160.781 112.906C161.312 112.578 161.711 112.109 161.977 111.5C162.242 110.891 162.422 110.164 162.516 109.32C162.609 108.477 162.656 107.547 162.656 106.531ZM182.414 83V119H174.492V83H182.414ZM199.57 119.469C197.508 119.469 195.664 119.148 194.039 118.508C192.414 117.852 191.039 116.953 189.914 115.812C188.805 114.672 187.953 113.359 187.359 111.875C186.781 110.391 186.492 108.82 186.492 107.164V106.273C186.492 104.414 186.75 102.695 187.266 101.117C187.781 99.5234 188.547 98.1328 189.562 96.9453C190.578 95.7578 191.852 94.8359 193.383 94.1797C194.914 93.5078 196.695 93.1719 198.727 93.1719C200.523 93.1719 202.133 93.4609 203.555 94.0391C204.977 94.6172 206.18 95.4453 207.164 96.5234C208.164 97.6016 208.922 98.9062 209.438 100.438C209.969 101.969 210.234 103.688 210.234 105.594V108.805H189.516V103.859H202.523V103.25C202.539 102.406 202.391 101.688 202.078 101.094C201.781 100.5 201.344 100.047 200.766 99.7344C200.188 99.4219 199.484 99.2656 198.656 99.2656C197.797 99.2656 197.086 99.4531 196.523 99.8281C195.977 100.203 195.547 100.719 195.234 101.375C194.938 102.016 194.727 102.758 194.602 103.602C194.477 104.445 194.414 105.336 194.414 106.273V107.164C194.414 108.102 194.539 108.953 194.789 109.719C195.055 110.484 195.43 111.141 195.914 111.688C196.414 112.219 197.008 112.633 197.695 112.93C198.398 113.227 199.195 113.375 200.086 113.375C201.164 113.375 202.227 113.172 203.273 112.766C204.32 112.359 205.219 111.688 205.969 110.75L209.555 115.016C209.039 115.75 208.305 116.461 207.352 117.148C206.414 117.836 205.289 118.398 203.977 118.836C202.664 119.258 201.195 119.469 199.57 119.469ZM224.414 106.578V106.086C224.414 104.227 224.68 102.516 225.211 100.953C225.742 99.375 226.523 98.0078 227.555 96.8516C228.586 95.6953 229.859 94.7969 231.375 94.1562C232.891 93.5 234.641 93.1719 236.625 93.1719C238.625 93.1719 240.383 93.5 241.898 94.1562C243.43 94.7969 244.711 95.6953 245.742 96.8516C246.773 98.0078 247.555 99.375 248.086 100.953C248.617 102.516 248.883 104.227 248.883 106.086V106.578C248.883 108.422 248.617 110.133 248.086 111.711C247.555 113.273 246.773 114.641 245.742 115.812C244.711 116.969 243.438 117.867 241.922 118.508C240.406 119.148 238.656 119.469 236.672 119.469C234.688 119.469 232.93 119.148 231.398 118.508C229.867 117.867 228.586 116.969 227.555 115.812C226.523 114.641 225.742 113.273 225.211 111.711C224.68 110.133 224.414 108.422 224.414 106.578ZM232.312 106.086V106.578C232.312 107.531 232.383 108.422 232.523 109.25C232.664 110.078 232.898 110.805 233.227 111.43C233.555 112.039 234 112.516 234.562 112.859C235.125 113.203 235.828 113.375 236.672 113.375C237.5 113.375 238.188 113.203 238.734 112.859C239.297 112.516 239.742 112.039 240.07 111.43C240.398 110.805 240.633 110.078 240.773 109.25C240.914 108.422 240.984 107.531 240.984 106.578V106.086C240.984 105.164 240.914 104.297 240.773 103.484C240.633 102.656 240.398 101.93 240.07 101.305C239.742 100.664 239.297 100.164 238.734 99.8047C238.172 99.4453 237.469 99.2656 236.625 99.2656C235.797 99.2656 235.102 99.4453 234.539 99.8047C233.992 100.164 233.555 100.664 233.227 101.305C232.898 101.93 232.664 102.656 232.523 103.484C232.383 104.297 232.312 105.164 232.312 106.086ZM262.078 119H254.133V91.5781C254.133 89.6094 254.531 87.9531 255.328 86.6094C256.125 85.2656 257.25 84.25 258.703 83.5625C260.156 82.8594 261.875 82.5078 263.859 82.5078C264.547 82.5078 265.195 82.5547 265.805 82.6484C266.414 82.7422 267.008 82.8594 267.586 83L267.609 88.8125C267.328 88.7344 267.039 88.6797 266.742 88.6484C266.445 88.6172 266.078 88.6016 265.641 88.6016C264.875 88.6016 264.227 88.7188 263.695 88.9531C263.164 89.1719 262.758 89.5078 262.477 89.9609C262.211 90.3984 262.078 90.9375 262.078 91.5781V119ZM267 93.6406V99.125H250.477V93.6406H267ZM301.57 107.445H309.773C309.664 109.82 309.023 111.914 307.852 113.727C306.68 115.539 305.055 116.953 302.977 117.969C300.914 118.969 298.477 119.469 295.664 119.469C293.383 119.469 291.344 119.086 289.547 118.32C287.766 117.555 286.25 116.453 285 115.016C283.766 113.578 282.82 111.836 282.164 109.789C281.523 107.742 281.203 105.438 281.203 102.875V101.023C281.203 98.4609 281.539 96.1562 282.211 94.1094C282.898 92.0469 283.867 90.2969 285.117 88.8594C286.383 87.4062 287.898 86.2969 289.664 85.5312C291.43 84.7656 293.391 84.3828 295.547 84.3828C298.516 84.3828 301.023 84.9141 303.07 85.9766C305.117 87.0391 306.703 88.5 307.828 90.3594C308.953 92.2031 309.617 94.3047 309.82 96.6641H301.617C301.586 95.3828 301.367 94.3125 300.961 93.4531C300.555 92.5781 299.914 91.9219 299.039 91.4844C298.164 91.0469 297 90.8281 295.547 90.8281C294.531 90.8281 293.648 91.0156 292.898 91.3906C292.148 91.7656 291.523 92.3594 291.023 93.1719C290.523 93.9844 290.148 95.0391 289.898 96.3359C289.664 97.6172 289.547 99.1641 289.547 100.977V102.875C289.547 104.688 289.656 106.234 289.875 107.516C290.094 108.797 290.445 109.844 290.93 110.656C291.414 111.469 292.039 112.07 292.805 112.461C293.586 112.836 294.539 113.023 295.664 113.023C296.914 113.023 297.969 112.828 298.828 112.438C299.688 112.031 300.352 111.422 300.82 110.609C301.289 109.781 301.539 108.727 301.57 107.445ZM312.305 106.578V106.086C312.305 104.227 312.57 102.516 313.102 100.953C313.633 99.375 314.414 98.0078 315.445 96.8516C316.477 95.6953 317.75 94.7969 319.266 94.1562C320.781 93.5 322.531 93.1719 324.516 93.1719C326.516 93.1719 328.273 93.5 329.789 94.1562C331.32 94.7969 332.602 95.6953 333.633 96.8516C334.664 98.0078 335.445 99.375 335.977 100.953C336.508 102.516 336.773 104.227 336.773 106.086V106.578C336.773 108.422 336.508 110.133 335.977 111.711C335.445 113.273 334.664 114.641 333.633 115.812C332.602 116.969 331.328 117.867 329.812 118.508C328.297 119.148 326.547 119.469 324.562 119.469C322.578 119.469 320.82 119.148 319.289 118.508C317.758 117.867 316.477 116.969 315.445 115.812C314.414 114.641 313.633 113.273 313.102 111.711C312.57 110.133 312.305 108.422 312.305 106.578ZM320.203 106.086V106.578C320.203 107.531 320.273 108.422 320.414 109.25C320.555 110.078 320.789 110.805 321.117 111.43C321.445 112.039 321.891 112.516 322.453 112.859C323.016 113.203 323.719 113.375 324.562 113.375C325.391 113.375 326.078 113.203 326.625 112.859C327.188 112.516 327.633 112.039 327.961 111.43C328.289 110.805 328.523 110.078 328.664 109.25C328.805 108.422 328.875 107.531 328.875 106.578V106.086C328.875 105.164 328.805 104.297 328.664 103.484C328.523 102.656 328.289 101.93 327.961 101.305C327.633 100.664 327.188 100.164 326.625 99.8047C326.062 99.4453 325.359 99.2656 324.516 99.2656C323.688 99.2656 322.992 99.4453 322.43 99.8047C321.883 100.164 321.445 100.664 321.117 101.305C320.789 101.93 320.555 102.656 320.414 103.484C320.273 104.297 320.203 105.164 320.203 106.086ZM348.047 99.0547V119H340.148V93.6406H347.555L348.047 99.0547ZM347.109 105.453L345.258 105.5C345.258 103.562 345.492 101.836 345.961 100.32C346.43 98.7891 347.094 97.4922 347.953 96.4297C348.812 95.3672 349.836 94.5625 351.023 94.0156C352.227 93.4531 353.562 93.1719 355.031 93.1719C356.203 93.1719 357.273 93.3438 358.242 93.6875C359.227 94.0312 360.07 94.5859 360.773 95.3516C361.492 96.1172 362.039 97.1328 362.414 98.3984C362.805 99.6484 363 101.195 363 103.039V119H355.055V103.016C355.055 102 354.914 101.227 354.633 100.695C354.352 100.148 353.945 99.7734 353.414 99.5703C352.883 99.3672 352.234 99.2656 351.469 99.2656C350.656 99.2656 349.969 99.4219 349.406 99.7344C348.844 100.047 348.391 100.484 348.047 101.047C347.719 101.594 347.477 102.242 347.32 102.992C347.18 103.742 347.109 104.562 347.109 105.453ZM380.742 93.6406V99.125H365.461V93.6406H380.742ZM368.672 87.3359H376.57V110.727C376.57 111.398 376.648 111.922 376.805 112.297C376.961 112.656 377.227 112.914 377.602 113.07C377.992 113.211 378.508 113.281 379.148 113.281C379.602 113.281 379.977 113.273 380.273 113.258C380.57 113.227 380.852 113.188 381.117 113.141V118.789C380.445 119.008 379.742 119.172 379.008 119.281C378.273 119.406 377.492 119.469 376.664 119.469C374.977 119.469 373.531 119.203 372.328 118.672C371.141 118.141 370.234 117.305 369.609 116.164C368.984 115.023 368.672 113.539 368.672 111.711V87.3359ZM396.164 119.469C394.102 119.469 392.258 119.148 390.633 118.508C389.008 117.852 387.633 116.953 386.508 115.812C385.398 114.672 384.547 113.359 383.953 111.875C383.375 110.391 383.086 108.82 383.086 107.164V106.273C383.086 104.414 383.344 102.695 383.859 101.117C384.375 99.5234 385.141 98.1328 386.156 96.9453C387.172 95.7578 388.445 94.8359 389.977 94.1797C391.508 93.5078 393.289 93.1719 395.32 93.1719C397.117 93.1719 398.727 93.4609 400.148 94.0391C401.57 94.6172 402.773 95.4453 403.758 96.5234C404.758 97.6016 405.516 98.9062 406.031 100.438C406.562 101.969 406.828 103.688 406.828 105.594V108.805H386.109V103.859H399.117V103.25C399.133 102.406 398.984 101.688 398.672 101.094C398.375 100.5 397.938 100.047 397.359 99.7344C396.781 99.4219 396.078 99.2656 395.25 99.2656C394.391 99.2656 393.68 99.4531 393.117 99.8281C392.57 100.203 392.141 100.719 391.828 101.375C391.531 102.016 391.32 102.758 391.195 103.602C391.07 104.445 391.008 105.336 391.008 106.273V107.164C391.008 108.102 391.133 108.953 391.383 109.719C391.648 110.484 392.023 111.141 392.508 111.688C393.008 112.219 393.602 112.633 394.289 112.93C394.992 113.227 395.789 113.375 396.68 113.375C397.758 113.375 398.82 113.172 399.867 112.766C400.914 112.359 401.812 111.688 402.562 110.75L406.148 115.016C405.633 115.75 404.898 116.461 403.945 117.148C403.008 117.836 401.883 118.398 400.57 118.836C399.258 119.258 397.789 119.469 396.164 119.469ZM417.797 99.0547V119H409.898V93.6406H417.305L417.797 99.0547ZM416.859 105.453L415.008 105.5C415.008 103.562 415.242 101.836 415.711 100.32C416.18 98.7891 416.844 97.4922 417.703 96.4297C418.562 95.3672 419.586 94.5625 420.773 94.0156C421.977 93.4531 423.312 93.1719 424.781 93.1719C425.953 93.1719 427.023 93.3438 427.992 93.6875C428.977 94.0312 429.82 94.5859 430.523 95.3516C431.242 96.1172 431.789 97.1328 432.164 98.3984C432.555 99.6484 432.75 101.195 432.75 103.039V119H424.805V103.016C424.805 102 424.664 101.227 424.383 100.695C424.102 100.148 423.695 99.7734 423.164 99.5703C422.633 99.3672 421.984 99.2656 421.219 99.2656C420.406 99.2656 419.719 99.4219 419.156 99.7344C418.594 100.047 418.141 100.484 417.797 101.047C417.469 101.594 417.227 102.242 417.07 102.992C416.93 103.742 416.859 104.562 416.859 105.453ZM450.492 93.6406V99.125H435.211V93.6406H450.492ZM438.422 87.3359H446.32V110.727C446.32 111.398 446.398 111.922 446.555 112.297C446.711 112.656 446.977 112.914 447.352 113.07C447.742 113.211 448.258 113.281 448.898 113.281C449.352 113.281 449.727 113.273 450.023 113.258C450.32 113.227 450.602 113.188 450.867 113.141V118.789C450.195 119.008 449.492 119.172 448.758 119.281C448.023 119.406 447.242 119.469 446.414 119.469C444.727 119.469 443.281 119.203 442.078 118.672C440.891 118.141 439.984 117.305 439.359 116.164C438.734 115.023 438.422 113.539 438.422 111.711V87.3359ZM466.922 111.875C466.922 111.438 466.773 111.062 466.477 110.75C466.195 110.422 465.695 110.125 464.977 109.859C464.258 109.578 463.25 109.297 461.953 109.016C460.719 108.75 459.555 108.398 458.461 107.961C457.383 107.523 456.438 106.992 455.625 106.367C454.812 105.742 454.172 105 453.703 104.141C453.25 103.281 453.023 102.297 453.023 101.188C453.023 100.109 453.25 99.0938 453.703 98.1406C454.172 97.1719 454.852 96.3203 455.742 95.5859C456.648 94.8359 457.75 94.25 459.047 93.8281C460.344 93.3906 461.82 93.1719 463.477 93.1719C465.758 93.1719 467.727 93.5234 469.383 94.2266C471.039 94.9141 472.312 95.8828 473.203 97.1328C474.109 98.3672 474.562 99.7969 474.562 101.422H466.664C466.664 100.781 466.555 100.234 466.336 99.7812C466.133 99.3281 465.797 98.9844 465.328 98.75C464.859 98.5 464.234 98.375 463.453 98.375C462.906 98.375 462.406 98.4766 461.953 98.6797C461.516 98.8828 461.164 99.1641 460.898 99.5234C460.633 99.8828 460.5 100.305 460.5 100.789C460.5 101.133 460.578 101.445 460.734 101.727C460.906 101.992 461.164 102.242 461.508 102.477C461.852 102.695 462.289 102.898 462.82 103.086C463.352 103.258 463.992 103.414 464.742 103.555C466.445 103.867 468.039 104.312 469.523 104.891C471.008 105.469 472.211 106.289 473.133 107.352C474.07 108.414 474.539 109.844 474.539 111.641C474.539 112.766 474.281 113.805 473.766 114.758C473.25 115.695 472.508 116.523 471.539 117.242C470.57 117.945 469.406 118.492 468.047 118.883C466.688 119.273 465.156 119.469 463.453 119.469C461.031 119.469 458.984 119.039 457.312 118.18C455.641 117.305 454.375 116.211 453.516 114.898C452.672 113.57 452.25 112.227 452.25 110.867H459.609C459.641 111.648 459.828 112.289 460.172 112.789C460.531 113.289 461.008 113.656 461.602 113.891C462.195 114.125 462.883 114.242 463.664 114.242C464.383 114.242 464.977 114.141 465.445 113.938C465.93 113.734 466.297 113.461 466.547 113.117C466.797 112.758 466.922 112.344 466.922 111.875Z" fill="#1D2126"/>
<path d="M1131 0H1345C1353.28 0 1360 6.71573 1360 15V148C1360 156.284 1353.28 163 1345 163H1131V0Z" fill="#0E80D4"/>
<path d="M1270.5 81.5V97.125C1270.5 103.018 1270.5 105.964 1268.67 107.794C1266.84 109.625 1263.89 109.625 1258 109.625H1228.31C1224 109.625 1220.5 106.127 1220.5 101.812M1270.5 81.5C1270.5 87.3926 1270.5 90.3388 1268.67 92.1694C1266.84 94 1263.89 94 1258 94H1228.31C1224 94 1220.5 97.4978 1220.5 101.812M1270.5 81.5V65.875C1270.5 59.9824 1270.5 57.0362 1268.67 55.2056C1266.84 53.375 1263.89 53.375 1258 53.375H1233C1227.11 53.375 1224.16 53.375 1222.33 55.2056C1220.5 57.0362 1220.5 59.9824 1220.5 65.875V101.812" stroke="white" stroke-width="6.25"/>
<path d="M1236.12 69H1254.88" stroke="white" stroke-width="6.25" stroke-linecap="round"/>
<path d="M101.906 53.9219L94.3945 51.2383V48.0859L104.602 52.375V54.6367L101.906 53.9219ZM94.3945 56.1719L101.918 53.4297L104.602 52.7852V55.0352L94.3945 59.3242V56.1719ZM122.32 43.9375H125.824V55.2109C125.824 56.5234 125.543 57.6289 124.98 58.5273C124.426 59.4258 123.656 60.1016 122.672 60.5547C121.695 61.0078 120.57 61.2344 119.297 61.2344C118.023 61.2344 116.891 61.0078 115.898 60.5547C114.914 60.1016 114.141 59.4258 113.578 58.5273C113.023 57.6289 112.746 56.5234 112.746 55.2109V43.9375H116.262V55.2109C116.262 55.9766 116.383 56.6016 116.625 57.0859C116.867 57.5703 117.215 57.9258 117.668 58.1523C118.129 58.3789 118.672 58.4922 119.297 58.4922C119.938 58.4922 120.48 58.3789 120.926 58.1523C121.379 57.9258 121.723 57.5703 121.957 57.0859C122.199 56.6016 122.32 55.9766 122.32 55.2109V43.9375ZM131.812 51.0273V61H128.438V48.3203H131.602L131.812 51.0273ZM131.32 54.2148H130.406C130.406 53.2773 130.527 52.4336 130.77 51.6836C131.012 50.9258 131.352 50.2812 131.789 49.75C132.227 49.2109 132.746 48.8008 133.348 48.5195C133.957 48.2305 134.637 48.0859 135.387 48.0859C135.98 48.0859 136.523 48.1719 137.016 48.3438C137.508 48.5156 137.93 48.7891 138.281 49.1641C138.641 49.5391 138.914 50.0352 139.102 50.6523C139.297 51.2695 139.395 52.0234 139.395 52.9141V61H135.996V52.9023C135.996 52.3398 135.918 51.9023 135.762 51.5898C135.605 51.2773 135.375 51.0586 135.07 50.9336C134.773 50.8008 134.406 50.7344 133.969 50.7344C133.516 50.7344 133.121 50.8242 132.785 51.0039C132.457 51.1836 132.184 51.4336 131.965 51.7539C131.754 52.0664 131.594 52.4336 131.484 52.8555C131.375 53.2773 131.32 53.7305 131.32 54.2148ZM145.523 48.3203V61H142.137V48.3203H145.523ZM141.926 45.0156C141.926 44.5234 142.098 44.1172 142.441 43.7969C142.785 43.4766 143.246 43.3164 143.824 43.3164C144.395 43.3164 144.852 43.4766 145.195 43.7969C145.547 44.1172 145.723 44.5234 145.723 45.0156C145.723 45.5078 145.547 45.9141 145.195 46.2344C144.852 46.5547 144.395 46.7148 143.824 46.7148C143.246 46.7148 142.785 46.5547 142.441 46.2344C142.098 45.9141 141.926 45.5078 141.926 45.0156ZM158.414 55.3398H161.918C161.848 56.4883 161.531 57.5078 160.969 58.3984C160.414 59.2891 159.637 59.9844 158.637 60.4844C157.645 60.9844 156.449 61.2344 155.051 61.2344C153.957 61.2344 152.977 61.0469 152.109 60.6719C151.242 60.2891 150.5 59.7422 149.883 59.0312C149.273 58.3203 148.809 57.4609 148.488 56.4531C148.168 55.4453 148.008 54.3164 148.008 53.0664V51.8828C148.008 50.6328 148.172 49.5039 148.5 48.4961C148.836 47.4805 149.312 46.6172 149.93 45.9062C150.555 45.1953 151.301 44.6484 152.168 44.2656C153.035 43.8828 154.004 43.6914 155.074 43.6914C156.496 43.6914 157.695 43.9492 158.672 44.4648C159.656 44.9805 160.418 45.6914 160.957 46.5977C161.504 47.5039 161.832 48.5352 161.941 49.6914H158.426C158.387 49.0039 158.25 48.4219 158.016 47.9453C157.781 47.4609 157.426 47.0977 156.949 46.8555C156.48 46.6055 155.855 46.4805 155.074 46.4805C154.488 46.4805 153.977 46.5898 153.539 46.8086C153.102 47.0273 152.734 47.3594 152.438 47.8047C152.141 48.25 151.918 48.8125 151.77 49.4922C151.629 50.1641 151.559 50.9531 151.559 51.8594V53.0664C151.559 53.9492 151.625 54.7266 151.758 55.3984C151.891 56.0625 152.094 56.625 152.367 57.0859C152.648 57.5391 153.008 57.8828 153.445 58.1172C153.891 58.3438 154.426 58.457 155.051 58.457C155.785 58.457 156.391 58.3398 156.867 58.1055C157.344 57.8711 157.707 57.5234 157.957 57.0625C158.215 56.6016 158.367 56.0273 158.414 55.3398ZM163.477 54.7891V54.543C163.477 53.6133 163.609 52.7578 163.875 51.9766C164.141 51.1875 164.527 50.5039 165.035 49.9258C165.543 49.3477 166.168 48.8984 166.91 48.5781C167.652 48.25 168.504 48.0859 169.465 48.0859C170.426 48.0859 171.281 48.25 172.031 48.5781C172.781 48.8984 173.41 49.3477 173.918 49.9258C174.434 50.5039 174.824 51.1875 175.09 51.9766C175.355 52.7578 175.488 53.6133 175.488 54.543V54.7891C175.488 55.7109 175.355 56.5664 175.09 57.3555C174.824 58.1367 174.434 58.8203 173.918 59.4062C173.41 59.9844 172.785 60.4336 172.043 60.7539C171.301 61.0742 170.449 61.2344 169.488 61.2344C168.527 61.2344 167.672 61.0742 166.922 60.7539C166.18 60.4336 165.551 59.9844 165.035 59.4062C164.527 58.8203 164.141 58.1367 163.875 57.3555C163.609 56.5664 163.477 55.7109 163.477 54.7891ZM166.852 54.543V54.7891C166.852 55.3203 166.898 55.8164 166.992 56.2773C167.086 56.7383 167.234 57.1445 167.438 57.4961C167.648 57.8398 167.922 58.1094 168.258 58.3047C168.594 58.5 169.004 58.5977 169.488 58.5977C169.957 58.5977 170.359 58.5 170.695 58.3047C171.031 58.1094 171.301 57.8398 171.504 57.4961C171.707 57.1445 171.855 56.7383 171.949 56.2773C172.051 55.8164 172.102 55.3203 172.102 54.7891V54.543C172.102 54.0273 172.051 53.543 171.949 53.0898C171.855 52.6289 171.703 52.2227 171.492 51.8711C171.289 51.5117 171.02 51.2305 170.684 51.0273C170.348 50.8242 169.941 50.7227 169.465 50.7227C168.988 50.7227 168.582 50.8242 168.246 51.0273C167.918 51.2305 167.648 51.5117 167.438 51.8711C167.234 52.2227 167.086 52.6289 166.992 53.0898C166.898 53.543 166.852 54.0273 166.852 54.543ZM180.867 51.0273V61H177.492V48.3203H180.656L180.867 51.0273ZM180.375 54.2148H179.461C179.461 53.2773 179.582 52.4336 179.824 51.6836C180.066 50.9258 180.406 50.2812 180.844 49.75C181.281 49.2109 181.801 48.8008 182.402 48.5195C183.012 48.2305 183.691 48.0859 184.441 48.0859C185.035 48.0859 185.578 48.1719 186.07 48.3438C186.562 48.5156 186.984 48.7891 187.336 49.1641C187.695 49.5391 187.969 50.0352 188.156 50.6523C188.352 51.2695 188.449 52.0234 188.449 52.9141V61H185.051V52.9023C185.051 52.3398 184.973 51.9023 184.816 51.5898C184.66 51.2773 184.43 51.0586 184.125 50.9336C183.828 50.8008 183.461 50.7344 183.023 50.7344C182.57 50.7344 182.176 50.8242 181.84 51.0039C181.512 51.1836 181.238 51.4336 181.02 51.7539C180.809 52.0664 180.648 52.4336 180.539 52.8555C180.43 53.2773 180.375 53.7305 180.375 54.2148ZM194.32 51.0273V61H190.945V48.3203H194.109L194.32 51.0273ZM193.828 54.2148H192.914C192.914 53.2773 193.035 52.4336 193.277 51.6836C193.52 50.9258 193.859 50.2812 194.297 49.75C194.734 49.2109 195.254 48.8008 195.855 48.5195C196.465 48.2305 197.145 48.0859 197.895 48.0859C198.488 48.0859 199.031 48.1719 199.523 48.3438C200.016 48.5156 200.438 48.7891 200.789 49.1641C201.148 49.5391 201.422 50.0352 201.609 50.6523C201.805 51.2695 201.902 52.0234 201.902 52.9141V61H198.504V52.9023C198.504 52.3398 198.426 51.9023 198.27 51.5898C198.113 51.2773 197.883 51.0586 197.578 50.9336C197.281 50.8008 196.914 50.7344 196.477 50.7344C196.023 50.7344 195.629 50.8242 195.293 51.0039C194.965 51.1836 194.691 51.4336 194.473 51.7539C194.262 52.0664 194.102 52.4336 193.992 52.8555C193.883 53.2773 193.828 53.7305 193.828 54.2148ZM210.305 61.2344C209.32 61.2344 208.438 61.0781 207.656 60.7656C206.875 60.4453 206.211 60.0039 205.664 59.4414C205.125 58.8789 204.711 58.2266 204.422 57.4844C204.133 56.7344 203.988 55.9375 203.988 55.0938V54.625C203.988 53.6641 204.125 52.7852 204.398 51.9883C204.672 51.1914 205.062 50.5 205.57 49.9141C206.086 49.3281 206.711 48.8789 207.445 48.5664C208.18 48.2461 209.008 48.0859 209.93 48.0859C210.828 48.0859 211.625 48.2344 212.32 48.5312C213.016 48.8281 213.598 49.25 214.066 49.7969C214.543 50.3438 214.902 51 215.145 51.7656C215.387 52.5234 215.508 53.3672 215.508 54.2969V55.7031H205.43V53.4531H212.191V53.1953C212.191 52.7266 212.105 52.3086 211.934 51.9414C211.77 51.5664 211.52 51.2695 211.184 51.0508C210.848 50.832 210.418 50.7227 209.895 50.7227C209.449 50.7227 209.066 50.8203 208.746 51.0156C208.426 51.2109 208.164 51.4844 207.961 51.8359C207.766 52.1875 207.617 52.6016 207.516 53.0781C207.422 53.5469 207.375 54.0625 207.375 54.625V55.0938C207.375 55.6016 207.445 56.0703 207.586 56.5C207.734 56.9297 207.941 57.3008 208.207 57.6133C208.48 57.9258 208.809 58.168 209.191 58.3398C209.582 58.5117 210.023 58.5977 210.516 58.5977C211.125 58.5977 211.691 58.4805 212.215 58.2461C212.746 58.0039 213.203 57.6406 213.586 57.1562L215.227 58.9375C214.961 59.3203 214.598 59.6875 214.137 60.0391C213.684 60.3906 213.137 60.6797 212.496 60.9062C211.855 61.125 211.125 61.2344 210.305 61.2344ZM222.668 58.5977C223.082 58.5977 223.449 58.5195 223.77 58.3633C224.09 58.1992 224.34 57.9727 224.52 57.6836C224.707 57.3867 224.805 57.0391 224.812 56.6406H227.988C227.98 57.5312 227.742 58.3242 227.273 59.0195C226.805 59.707 226.176 60.25 225.387 60.6484C224.598 61.0391 223.715 61.2344 222.738 61.2344C221.754 61.2344 220.895 61.0703 220.16 60.7422C219.434 60.4141 218.828 59.9609 218.344 59.3828C217.859 58.7969 217.496 58.1172 217.254 57.3438C217.012 56.5625 216.891 55.7266 216.891 54.8359V54.4961C216.891 53.5977 217.012 52.7617 217.254 51.9883C217.496 51.207 217.859 50.5273 218.344 49.9492C218.828 49.3633 219.434 48.9062 220.16 48.5781C220.887 48.25 221.738 48.0859 222.715 48.0859C223.754 48.0859 224.664 48.2852 225.445 48.6836C226.234 49.082 226.852 49.6523 227.297 50.3945C227.75 51.1289 227.98 52 227.988 53.0078H224.812C224.805 52.5859 224.715 52.2031 224.543 51.8594C224.379 51.5156 224.137 51.2422 223.816 51.0391C223.504 50.8281 223.117 50.7227 222.656 50.7227C222.164 50.7227 221.762 50.8281 221.449 51.0391C221.137 51.2422 220.895 51.5234 220.723 51.8828C220.551 52.2344 220.43 52.6367 220.359 53.0898C220.297 53.5352 220.266 54.0039 220.266 54.4961V54.8359C220.266 55.3281 220.297 55.8008 220.359 56.2539C220.422 56.707 220.539 57.1094 220.711 57.4609C220.891 57.8125 221.137 58.0898 221.449 58.293C221.762 58.4961 222.168 58.5977 222.668 58.5977ZM236.156 48.3203V50.7109H228.773V48.3203H236.156ZM230.602 45.1914H233.977V57.1797C233.977 57.5469 234.023 57.8281 234.117 58.0234C234.219 58.2188 234.367 58.3555 234.562 58.4336C234.758 58.5039 235.004 58.5391 235.301 58.5391C235.512 58.5391 235.699 58.5312 235.863 58.5156C236.035 58.4922 236.18 58.4688 236.297 58.4453L236.309 60.9297C236.02 61.0234 235.707 61.0977 235.371 61.1523C235.035 61.207 234.664 61.2344 234.258 61.2344C233.516 61.2344 232.867 61.1133 232.312 60.8711C231.766 60.6211 231.344 60.2227 231.047 59.6758C230.75 59.1289 230.602 58.4102 230.602 57.5195V45.1914Z" fill="#888888"/>
</svg>
