<svg width="1363" height="163" viewBox="0 0 1363 163" fill="none" xmlns="http://www.w3.org/2000/svg">
<path d="M0 15C0 6.71573 6.71573 0 15 0H37V163H15C6.71573 163 0 156.284 0 148V15Z" fill="#424242"/>
<rect width="1097" height="163" transform="translate(37)" fill="#F0F0F0"/>
<path d="M101.906 53.9219L94.3945 51.2383V48.0859L104.602 52.375V54.6367L101.906 53.9219ZM94.3945 56.1719L101.918 53.4297L104.602 52.7852V55.0352L94.3945 59.3242V56.1719ZM122.32 43.9375H125.824V55.2109C125.824 56.5234 125.543 57.6289 124.98 58.5273C124.426 59.4258 123.656 60.1016 122.672 60.5547C121.695 61.0078 120.57 61.2344 119.297 61.2344C118.023 61.2344 116.891 61.0078 115.898 60.5547C114.914 60.1016 114.141 59.4258 113.578 58.5273C113.023 57.6289 112.746 56.5234 112.746 55.2109V43.9375H116.262V55.2109C116.262 55.9766 116.383 56.6016 116.625 57.0859C116.867 57.5703 117.215 57.9258 117.668 58.1523C118.129 58.3789 118.672 58.4922 119.297 58.4922C119.938 58.4922 120.48 58.3789 120.926 58.1523C121.379 57.9258 121.723 57.5703 121.957 57.0859C122.199 56.6016 122.32 55.9766 122.32 55.2109V43.9375ZM131.812 51.0273V61H128.438V48.3203H131.602L131.812 51.0273ZM131.32 54.2148H130.406C130.406 53.2773 130.527 52.4336 130.77 51.6836C131.012 50.9258 131.352 50.2812 131.789 49.75C132.227 49.2109 132.746 48.8008 133.348 48.5195C133.957 48.2305 134.637 48.0859 135.387 48.0859C135.98 48.0859 136.523 48.1719 137.016 48.3438C137.508 48.5156 137.93 48.7891 138.281 49.1641C138.641 49.5391 138.914 50.0352 139.102 50.6523C139.297 51.2695 139.395 52.0234 139.395 52.9141V61H135.996V52.9023C135.996 52.3398 135.918 51.9023 135.762 51.5898C135.605 51.2773 135.375 51.0586 135.07 50.9336C134.773 50.8008 134.406 50.7344 133.969 50.7344C133.516 50.7344 133.121 50.8242 132.785 51.0039C132.457 51.1836 132.184 51.4336 131.965 51.7539C131.754 52.0664 131.594 52.4336 131.484 52.8555C131.375 53.2773 131.32 53.7305 131.32 54.2148ZM145.523 48.3203V61H142.137V48.3203H145.523ZM141.926 45.0156C141.926 44.5234 142.098 44.1172 142.441 43.7969C142.785 43.4766 143.246 43.3164 143.824 43.3164C144.395 43.3164 144.852 43.4766 145.195 43.7969C145.547 44.1172 145.723 44.5234 145.723 45.0156C145.723 45.5078 145.547 45.9141 145.195 46.2344C144.852 46.5547 144.395 46.7148 143.824 46.7148C143.246 46.7148 142.785 46.5547 142.441 46.2344C142.098 45.9141 141.926 45.5078 141.926 45.0156ZM158.414 55.3398H161.918C161.848 56.4883 161.531 57.5078 160.969 58.3984C160.414 59.2891 159.637 59.9844 158.637 60.4844C157.645 60.9844 156.449 61.2344 155.051 61.2344C153.957 61.2344 152.977 61.0469 152.109 60.6719C151.242 60.2891 150.5 59.7422 149.883 59.0312C149.273 58.3203 148.809 57.4609 148.488 56.4531C148.168 55.4453 148.008 54.3164 148.008 53.0664V51.8828C148.008 50.6328 148.172 49.5039 148.5 48.4961C148.836 47.4805 149.312 46.6172 149.93 45.9062C150.555 45.1953 151.301 44.6484 152.168 44.2656C153.035 43.8828 154.004 43.6914 155.074 43.6914C156.496 43.6914 157.695 43.9492 158.672 44.4648C159.656 44.9805 160.418 45.6914 160.957 46.5977C161.504 47.5039 161.832 48.5352 161.941 49.6914H158.426C158.387 49.0039 158.25 48.4219 158.016 47.9453C157.781 47.4609 157.426 47.0977 156.949 46.8555C156.48 46.6055 155.855 46.4805 155.074 46.4805C154.488 46.4805 153.977 46.5898 153.539 46.8086C153.102 47.0273 152.734 47.3594 152.438 47.8047C152.141 48.25 151.918 48.8125 151.77 49.4922C151.629 50.1641 151.559 50.9531 151.559 51.8594V53.0664C151.559 53.9492 151.625 54.7266 151.758 55.3984C151.891 56.0625 152.094 56.625 152.367 57.0859C152.648 57.5391 153.008 57.8828 153.445 58.1172C153.891 58.3438 154.426 58.457 155.051 58.457C155.785 58.457 156.391 58.3398 156.867 58.1055C157.344 57.8711 157.707 57.5234 157.957 57.0625C158.215 56.6016 158.367 56.0273 158.414 55.3398ZM163.477 54.7891V54.543C163.477 53.6133 163.609 52.7578 163.875 51.9766C164.141 51.1875 164.527 50.5039 165.035 49.9258C165.543 49.3477 166.168 48.8984 166.91 48.5781C167.652 48.25 168.504 48.0859 169.465 48.0859C170.426 48.0859 171.281 48.25 172.031 48.5781C172.781 48.8984 173.41 49.3477 173.918 49.9258C174.434 50.5039 174.824 51.1875 175.09 51.9766C175.355 52.7578 175.488 53.6133 175.488 54.543V54.7891C175.488 55.7109 175.355 56.5664 175.09 57.3555C174.824 58.1367 174.434 58.8203 173.918 59.4062C173.41 59.9844 172.785 60.4336 172.043 60.7539C171.301 61.0742 170.449 61.2344 169.488 61.2344C168.527 61.2344 167.672 61.0742 166.922 60.7539C166.18 60.4336 165.551 59.9844 165.035 59.4062C164.527 58.8203 164.141 58.1367 163.875 57.3555C163.609 56.5664 163.477 55.7109 163.477 54.7891ZM166.852 54.543V54.7891C166.852 55.3203 166.898 55.8164 166.992 56.2773C167.086 56.7383 167.234 57.1445 167.438 57.4961C167.648 57.8398 167.922 58.1094 168.258 58.3047C168.594 58.5 169.004 58.5977 169.488 58.5977C169.957 58.5977 170.359 58.5 170.695 58.3047C171.031 58.1094 171.301 57.8398 171.504 57.4961C171.707 57.1445 171.855 56.7383 171.949 56.2773C172.051 55.8164 172.102 55.3203 172.102 54.7891V54.543C172.102 54.0273 172.051 53.543 171.949 53.0898C171.855 52.6289 171.703 52.2227 171.492 51.8711C171.289 51.5117 171.02 51.2305 170.684 51.0273C170.348 50.8242 169.941 50.7227 169.465 50.7227C168.988 50.7227 168.582 50.8242 168.246 51.0273C167.918 51.2305 167.648 51.5117 167.438 51.8711C167.234 52.2227 167.086 52.6289 166.992 53.0898C166.898 53.543 166.852 54.0273 166.852 54.543ZM180.867 51.0273V61H177.492V48.3203H180.656L180.867 51.0273ZM180.375 54.2148H179.461C179.461 53.2773 179.582 52.4336 179.824 51.6836C180.066 50.9258 180.406 50.2812 180.844 49.75C181.281 49.2109 181.801 48.8008 182.402 48.5195C183.012 48.2305 183.691 48.0859 184.441 48.0859C185.035 48.0859 185.578 48.1719 186.07 48.3438C186.562 48.5156 186.984 48.7891 187.336 49.1641C187.695 49.5391 187.969 50.0352 188.156 50.6523C188.352 51.2695 188.449 52.0234 188.449 52.9141V61H185.051V52.9023C185.051 52.3398 184.973 51.9023 184.816 51.5898C184.66 51.2773 184.43 51.0586 184.125 50.9336C183.828 50.8008 183.461 50.7344 183.023 50.7344C182.57 50.7344 182.176 50.8242 181.84 51.0039C181.512 51.1836 181.238 51.4336 181.02 51.7539C180.809 52.0664 180.648 52.4336 180.539 52.8555C180.43 53.2773 180.375 53.7305 180.375 54.2148ZM194.32 51.0273V61H190.945V48.3203H194.109L194.32 51.0273ZM193.828 54.2148H192.914C192.914 53.2773 193.035 52.4336 193.277 51.6836C193.52 50.9258 193.859 50.2812 194.297 49.75C194.734 49.2109 195.254 48.8008 195.855 48.5195C196.465 48.2305 197.145 48.0859 197.895 48.0859C198.488 48.0859 199.031 48.1719 199.523 48.3438C200.016 48.5156 200.438 48.7891 200.789 49.1641C201.148 49.5391 201.422 50.0352 201.609 50.6523C201.805 51.2695 201.902 52.0234 201.902 52.9141V61H198.504V52.9023C198.504 52.3398 198.426 51.9023 198.27 51.5898C198.113 51.2773 197.883 51.0586 197.578 50.9336C197.281 50.8008 196.914 50.7344 196.477 50.7344C196.023 50.7344 195.629 50.8242 195.293 51.0039C194.965 51.1836 194.691 51.4336 194.473 51.7539C194.262 52.0664 194.102 52.4336 193.992 52.8555C193.883 53.2773 193.828 53.7305 193.828 54.2148ZM210.305 61.2344C209.32 61.2344 208.438 61.0781 207.656 60.7656C206.875 60.4453 206.211 60.0039 205.664 59.4414C205.125 58.8789 204.711 58.2266 204.422 57.4844C204.133 56.7344 203.988 55.9375 203.988 55.0938V54.625C203.988 53.6641 204.125 52.7852 204.398 51.9883C204.672 51.1914 205.062 50.5 205.57 49.9141C206.086 49.3281 206.711 48.8789 207.445 48.5664C208.18 48.2461 209.008 48.0859 209.93 48.0859C210.828 48.0859 211.625 48.2344 212.32 48.5312C213.016 48.8281 213.598 49.25 214.066 49.7969C214.543 50.3438 214.902 51 215.145 51.7656C215.387 52.5234 215.508 53.3672 215.508 54.2969V55.7031H205.43V53.4531H212.191V53.1953C212.191 52.7266 212.105 52.3086 211.934 51.9414C211.77 51.5664 211.52 51.2695 211.184 51.0508C210.848 50.832 210.418 50.7227 209.895 50.7227C209.449 50.7227 209.066 50.8203 208.746 51.0156C208.426 51.2109 208.164 51.4844 207.961 51.8359C207.766 52.1875 207.617 52.6016 207.516 53.0781C207.422 53.5469 207.375 54.0625 207.375 54.625V55.0938C207.375 55.6016 207.445 56.0703 207.586 56.5C207.734 56.9297 207.941 57.3008 208.207 57.6133C208.48 57.9258 208.809 58.168 209.191 58.3398C209.582 58.5117 210.023 58.5977 210.516 58.5977C211.125 58.5977 211.691 58.4805 212.215 58.2461C212.746 58.0039 213.203 57.6406 213.586 57.1562L215.227 58.9375C214.961 59.3203 214.598 59.6875 214.137 60.0391C213.684 60.3906 213.137 60.6797 212.496 60.9062C211.855 61.125 211.125 61.2344 210.305 61.2344ZM222.668 58.5977C223.082 58.5977 223.449 58.5195 223.77 58.3633C224.09 58.1992 224.34 57.9727 224.52 57.6836C224.707 57.3867 224.805 57.0391 224.812 56.6406H227.988C227.98 57.5312 227.742 58.3242 227.273 59.0195C226.805 59.707 226.176 60.25 225.387 60.6484C224.598 61.0391 223.715 61.2344 222.738 61.2344C221.754 61.2344 220.895 61.0703 220.16 60.7422C219.434 60.4141 218.828 59.9609 218.344 59.3828C217.859 58.7969 217.496 58.1172 217.254 57.3438C217.012 56.5625 216.891 55.7266 216.891 54.8359V54.4961C216.891 53.5977 217.012 52.7617 217.254 51.9883C217.496 51.207 217.859 50.5273 218.344 49.9492C218.828 49.3633 219.434 48.9062 220.16 48.5781C220.887 48.25 221.738 48.0859 222.715 48.0859C223.754 48.0859 224.664 48.2852 225.445 48.6836C226.234 49.082 226.852 49.6523 227.297 50.3945C227.75 51.1289 227.98 52 227.988 53.0078H224.812C224.805 52.5859 224.715 52.2031 224.543 51.8594C224.379 51.5156 224.137 51.2422 223.816 51.0391C223.504 50.8281 223.117 50.7227 222.656 50.7227C222.164 50.7227 221.762 50.8281 221.449 51.0391C221.137 51.2422 220.895 51.5234 220.723 51.8828C220.551 52.2344 220.43 52.6367 220.359 53.0898C220.297 53.5352 220.266 54.0039 220.266 54.4961V54.8359C220.266 55.3281 220.297 55.8008 220.359 56.2539C220.422 56.707 220.539 57.1094 220.711 57.4609C220.891 57.8125 221.137 58.0898 221.449 58.293C221.762 58.4961 222.168 58.5977 222.668 58.5977ZM236.156 48.3203V50.7109H228.773V48.3203H236.156ZM230.602 45.1914H233.977V57.1797C233.977 57.5469 234.023 57.8281 234.117 58.0234C234.219 58.2188 234.367 58.3555 234.562 58.4336C234.758 58.5039 235.004 58.5391 235.301 58.5391C235.512 58.5391 235.699 58.5312 235.863 58.5156C236.035 58.4922 236.18 58.4688 236.297 58.4453L236.309 60.9297C236.02 61.0234 235.707 61.0977 235.371 61.1523C235.035 61.207 234.664 61.2344 234.258 61.2344C233.516 61.2344 232.867 61.1133 232.312 60.8711C231.766 60.6211 231.344 60.2227 231.047 59.6758C230.75 59.1289 230.602 58.4102 230.602 57.5195V45.1914Z" fill="#888888"/>
<path d="M112.125 84.875V119H103.898V84.875H112.125ZM122.391 84.875V91.2266H93.8672V84.875H122.391ZM135.68 119.469C133.617 119.469 131.773 119.148 130.148 118.508C128.523 117.852 127.148 116.953 126.023 115.812C124.914 114.672 124.062 113.359 123.469 111.875C122.891 110.391 122.602 108.82 122.602 107.164V106.273C122.602 104.414 122.859 102.695 123.375 101.117C123.891 99.5234 124.656 98.1328 125.672 96.9453C126.688 95.7578 127.961 94.8359 129.492 94.1797C131.023 93.5078 132.805 93.1719 134.836 93.1719C136.633 93.1719 138.242 93.4609 139.664 94.0391C141.086 94.6172 142.289 95.4453 143.273 96.5234C144.273 97.6016 145.031 98.9062 145.547 100.438C146.078 101.969 146.344 103.688 146.344 105.594V108.805H125.625V103.859H138.633V103.25C138.648 102.406 138.5 101.688 138.188 101.094C137.891 100.5 137.453 100.047 136.875 99.7344C136.297 99.4219 135.594 99.2656 134.766 99.2656C133.906 99.2656 133.195 99.4531 132.633 99.8281C132.086 100.203 131.656 100.719 131.344 101.375C131.047 102.016 130.836 102.758 130.711 103.602C130.586 104.445 130.523 105.336 130.523 106.273V107.164C130.523 108.102 130.648 108.953 130.898 109.719C131.164 110.484 131.539 111.141 132.023 111.688C132.523 112.219 133.117 112.633 133.805 112.93C134.508 113.227 135.305 113.375 136.195 113.375C137.273 113.375 138.336 113.172 139.383 112.766C140.43 112.359 141.328 111.688 142.078 110.75L145.664 115.016C145.148 115.75 144.414 116.461 143.461 117.148C142.523 117.836 141.398 118.398 140.086 118.836C138.773 119.258 137.305 119.469 135.68 119.469ZM160.266 113.375C161 113.375 161.625 113.242 162.141 112.977C162.672 112.695 163.07 112.305 163.336 111.805C163.617 111.289 163.75 110.672 163.734 109.953H171.164C171.18 111.859 170.711 113.531 169.758 114.969C168.82 116.391 167.539 117.5 165.914 118.297C164.305 119.078 162.484 119.469 160.453 119.469C158.469 119.469 156.734 119.148 155.25 118.508C153.766 117.852 152.523 116.945 151.523 115.789C150.539 114.617 149.797 113.25 149.297 111.688C148.812 110.125 148.57 108.43 148.57 106.602V106.062C148.57 104.234 148.812 102.539 149.297 100.977C149.797 99.3984 150.539 98.0312 151.523 96.875C152.523 95.7031 153.758 94.7969 155.227 94.1562C156.711 93.5 158.438 93.1719 160.406 93.1719C162.516 93.1719 164.375 93.5703 165.984 94.3672C167.609 95.1641 168.883 96.3203 169.805 97.8359C170.727 99.3516 171.18 101.188 171.164 103.344H163.734C163.75 102.578 163.633 101.891 163.383 101.281C163.133 100.672 162.742 100.188 162.211 99.8281C161.695 99.4531 161.031 99.2656 160.219 99.2656C159.406 99.2656 158.75 99.4453 158.25 99.8047C157.75 100.164 157.367 100.664 157.102 101.305C156.852 101.93 156.68 102.648 156.586 103.461C156.508 104.273 156.469 105.141 156.469 106.062V106.602C156.469 107.539 156.508 108.422 156.586 109.25C156.68 110.062 156.859 110.781 157.125 111.406C157.391 112.016 157.773 112.5 158.273 112.859C158.773 113.203 159.438 113.375 160.266 113.375ZM182.273 83V119H174.375V83H182.273ZM181.336 105.453L179.484 105.5C179.484 103.719 179.703 102.078 180.141 100.578C180.578 99.0781 181.203 97.7734 182.016 96.6641C182.828 95.5547 183.805 94.6953 184.945 94.0859C186.086 93.4766 187.352 93.1719 188.742 93.1719C189.992 93.1719 191.133 93.3516 192.164 93.7109C193.211 94.0703 194.109 94.6484 194.859 95.4453C195.625 96.2422 196.211 97.2812 196.617 98.5625C197.039 99.8438 197.25 101.406 197.25 103.25V119H189.305V103.203C189.305 102.172 189.156 101.375 188.859 100.812C188.578 100.234 188.172 99.8359 187.641 99.6172C187.109 99.3828 186.461 99.2656 185.695 99.2656C184.773 99.2656 184.023 99.4219 183.445 99.7344C182.867 100.047 182.422 100.484 182.109 101.047C181.812 101.594 181.609 102.242 181.5 102.992C181.391 103.742 181.336 104.562 181.336 105.453ZM231.539 109.93C231.539 109.398 231.461 108.922 231.305 108.5C231.148 108.062 230.859 107.656 230.438 107.281C230.016 106.906 229.406 106.531 228.609 106.156C227.828 105.766 226.797 105.359 225.516 104.938C224.016 104.438 222.57 103.875 221.18 103.25C219.789 102.609 218.547 101.867 217.453 101.023C216.359 100.164 215.492 99.1641 214.852 98.0234C214.211 96.8672 213.891 95.5234 213.891 93.9922C213.891 92.5234 214.219 91.2031 214.875 90.0312C215.531 88.8438 216.445 87.8359 217.617 87.0078C218.805 86.1641 220.195 85.5234 221.789 85.0859C223.383 84.6328 225.125 84.4062 227.016 84.4062C229.516 84.4062 231.719 84.8438 233.625 85.7188C235.547 86.5781 237.047 87.8047 238.125 89.3984C239.219 90.9766 239.766 92.8438 239.766 95H231.586C231.586 94.1406 231.406 93.3828 231.047 92.7266C230.703 92.0703 230.18 91.5547 229.477 91.1797C228.773 90.8047 227.891 90.6172 226.828 90.6172C225.797 90.6172 224.93 90.7734 224.227 91.0859C223.523 91.3984 222.992 91.8203 222.633 92.3516C222.273 92.8672 222.094 93.4375 222.094 94.0625C222.094 94.5781 222.234 95.0469 222.516 95.4688C222.812 95.875 223.227 96.2578 223.758 96.6172C224.305 96.9766 224.961 97.3203 225.727 97.6484C226.508 97.9766 227.383 98.2969 228.352 98.6094C230.164 99.1875 231.773 99.8359 233.18 100.555C234.602 101.258 235.797 102.062 236.766 102.969C237.75 103.859 238.492 104.875 238.992 106.016C239.508 107.156 239.766 108.445 239.766 109.883C239.766 111.414 239.469 112.773 238.875 113.961C238.281 115.148 237.43 116.156 236.32 116.984C235.211 117.797 233.883 118.414 232.336 118.836C230.789 119.258 229.062 119.469 227.156 119.469C225.406 119.469 223.68 119.25 221.977 118.812C220.289 118.359 218.758 117.672 217.383 116.75C216.008 115.812 214.906 114.617 214.078 113.164C213.266 111.695 212.859 109.953 212.859 107.938H221.109C221.109 108.938 221.242 109.781 221.508 110.469C221.773 111.156 222.164 111.711 222.68 112.133C223.195 112.539 223.828 112.836 224.578 113.023C225.328 113.195 226.188 113.281 227.156 113.281C228.203 113.281 229.047 113.133 229.688 112.836C230.328 112.523 230.797 112.117 231.094 111.617C231.391 111.102 231.539 110.539 231.539 109.93ZM256.992 93.6406V99.125H241.711V93.6406H256.992ZM244.922 87.3359H252.82V110.727C252.82 111.398 252.898 111.922 253.055 112.297C253.211 112.656 253.477 112.914 253.852 113.07C254.242 113.211 254.758 113.281 255.398 113.281C255.852 113.281 256.227 113.273 256.523 113.258C256.82 113.227 257.102 113.188 257.367 113.141V118.789C256.695 119.008 255.992 119.172 255.258 119.281C254.523 119.406 253.742 119.469 252.914 119.469C251.227 119.469 249.781 119.203 248.578 118.672C247.391 118.141 246.484 117.305 245.859 116.164C245.234 115.023 244.922 113.539 244.922 111.711V87.3359ZM273.305 112.625V102.172C273.305 101.453 273.203 100.836 273 100.32C272.797 99.8047 272.477 99.4062 272.039 99.125C271.602 98.8281 271.016 98.6797 270.281 98.6797C269.688 98.6797 269.18 98.7812 268.758 98.9844C268.336 99.1875 268.016 99.4922 267.797 99.8984C267.578 100.305 267.469 100.82 267.469 101.445H259.57C259.57 100.273 259.828 99.1875 260.344 98.1875C260.875 97.1719 261.625 96.2891 262.594 95.5391C263.578 94.7891 264.75 94.2109 266.109 93.8047C267.484 93.3828 269.016 93.1719 270.703 93.1719C272.719 93.1719 274.516 93.5078 276.094 94.1797C277.688 94.8516 278.945 95.8594 279.867 97.2031C280.789 98.5312 281.25 100.203 281.25 102.219V112.602C281.25 114.258 281.344 115.516 281.531 116.375C281.719 117.219 281.984 117.961 282.328 118.602V119H274.406C274.031 118.219 273.75 117.266 273.562 116.141C273.391 115 273.305 113.828 273.305 112.625ZM274.266 103.508L274.312 107.727H270.82C270.086 107.727 269.461 107.828 268.945 108.031C268.445 108.234 268.039 108.516 267.727 108.875C267.43 109.219 267.211 109.609 267.07 110.047C266.945 110.484 266.883 110.945 266.883 111.43C266.883 111.898 266.992 112.32 267.211 112.695C267.445 113.055 267.758 113.336 268.148 113.539C268.539 113.742 268.977 113.844 269.461 113.844C270.336 113.844 271.078 113.68 271.688 113.352C272.312 113.008 272.789 112.594 273.117 112.109C273.445 111.625 273.609 111.172 273.609 110.75L275.344 113.984C275.031 114.609 274.672 115.242 274.266 115.883C273.875 116.523 273.383 117.117 272.789 117.664C272.211 118.195 271.5 118.633 270.656 118.977C269.812 119.305 268.789 119.469 267.586 119.469C266.023 119.469 264.586 119.148 263.273 118.508C261.977 117.867 260.938 116.977 260.156 115.836C259.375 114.68 258.984 113.352 258.984 111.852C258.984 110.539 259.219 109.367 259.688 108.336C260.172 107.305 260.898 106.43 261.867 105.711C262.836 104.992 264.07 104.445 265.57 104.07C267.07 103.695 268.836 103.508 270.867 103.508H274.266ZM296.344 113.375C297.078 113.375 297.703 113.242 298.219 112.977C298.75 112.695 299.148 112.305 299.414 111.805C299.695 111.289 299.828 110.672 299.812 109.953H307.242C307.258 111.859 306.789 113.531 305.836 114.969C304.898 116.391 303.617 117.5 301.992 118.297C300.383 119.078 298.562 119.469 296.531 119.469C294.547 119.469 292.812 119.148 291.328 118.508C289.844 117.852 288.602 116.945 287.602 115.789C286.617 114.617 285.875 113.25 285.375 111.688C284.891 110.125 284.648 108.43 284.648 106.602V106.062C284.648 104.234 284.891 102.539 285.375 100.977C285.875 99.3984 286.617 98.0312 287.602 96.875C288.602 95.7031 289.836 94.7969 291.305 94.1562C292.789 93.5 294.516 93.1719 296.484 93.1719C298.594 93.1719 300.453 93.5703 302.062 94.3672C303.688 95.1641 304.961 96.3203 305.883 97.8359C306.805 99.3516 307.258 101.188 307.242 103.344H299.812C299.828 102.578 299.711 101.891 299.461 101.281C299.211 100.672 298.82 100.188 298.289 99.8281C297.773 99.4531 297.109 99.2656 296.297 99.2656C295.484 99.2656 294.828 99.4453 294.328 99.8047C293.828 100.164 293.445 100.664 293.18 101.305C292.93 101.93 292.758 102.648 292.664 103.461C292.586 104.273 292.547 105.141 292.547 106.062V106.602C292.547 107.539 292.586 108.422 292.664 109.25C292.758 110.062 292.938 110.781 293.203 111.406C293.469 112.016 293.852 112.5 294.352 112.859C294.852 113.203 295.516 113.375 296.344 113.375ZM318.586 82.9766V119H310.688V82.9766H318.586ZM334.805 93.6406L323.789 106.555L318.023 112.32L314.578 107.305L319.383 101.047L325.336 93.6406H334.805ZM326.344 119L319.57 107.445L325.406 103.297L335.391 119H326.344Z" fill="black"/>
<path d="M1134 0H1348C1356.28 0 1363 6.71573 1363 15V148C1363 156.284 1356.28 163 1348 163H1134V0Z" fill="#0E80D4"/>
<path fill-rule="evenodd" clip-rule="evenodd" d="M1218.75 53C1218.62 53 1218.49 53.0527 1218.4 53.1464C1218.3 53.2402 1218.25 53.3674 1218.25 53.5V109.5C1218.25 109.633 1218.3 109.76 1218.4 109.854C1218.49 109.947 1218.62 110 1218.75 110H1278.25C1278.38 110 1278.51 109.947 1278.6 109.854C1278.7 109.76 1278.75 109.633 1278.75 109.5V64C1278.75 63.8674 1278.7 63.7402 1278.6 63.6464C1278.51 63.5527 1278.38 63.5 1278.25 63.5H1248.5C1247.61 63.5 1246.77 63.1045 1246.2 62.4206L1238.34 53H1218.75ZM1214.15 48.9038C1215.37 47.6848 1217.03 47 1218.75 47H1239.75C1240.64 47 1241.48 47.3955 1242.05 48.0794L1249.91 57.5H1278.25C1279.97 57.5 1281.63 58.1848 1282.85 59.4038C1284.07 60.6228 1284.75 62.2761 1284.75 64V109.5C1284.75 111.224 1284.07 112.877 1282.85 114.096C1281.63 115.315 1279.97 116 1278.25 116H1218.75C1217.03 116 1215.37 115.315 1214.15 114.096C1212.93 112.877 1212.25 111.224 1212.25 109.5V53.5C1212.25 51.7761 1212.93 50.1228 1214.15 48.9038Z" fill="white"/>
<path fill-rule="evenodd" clip-rule="evenodd" d="M1243.97 75.5251C1245.34 76.892 1245.34 79.108 1243.97 80.4749L1237.7 86.75L1243.97 93.0251C1245.34 94.392 1245.34 96.608 1243.97 97.9749C1242.61 99.3417 1240.39 99.3417 1239.03 97.9749L1230.28 89.2249C1228.91 87.858 1228.91 85.642 1230.28 84.2751L1239.03 75.5251C1240.39 74.1583 1242.61 74.1583 1243.97 75.5251Z" fill="white"/>
<path fill-rule="evenodd" clip-rule="evenodd" d="M1252.28 97.9749C1250.91 96.608 1250.91 94.392 1252.28 93.0251L1258.55 86.75L1252.28 80.4749C1250.91 79.108 1250.91 76.892 1252.28 75.5251C1253.64 74.1583 1255.86 74.1583 1257.22 75.5251L1265.97 84.2751C1267.34 85.642 1267.34 87.858 1265.97 89.2249L1257.22 97.9749C1255.86 99.3417 1253.64 99.3417 1252.28 97.9749Z" fill="white"/>
</svg>
