<svg width="1363" height="163" viewBox="0 0 1363 163" fill="none" xmlns="http://www.w3.org/2000/svg">
<path d="M0 15C0 6.71573 6.71573 0 15 0H37V163H15C6.71573 163 0 156.284 0 148V15Z" fill="#424242"/>
<rect width="1097" height="163" transform="translate(37)" fill="#F0F0F0"/>
<path d="M101.906 53.9219L94.3945 51.2383V48.0859L104.602 52.375V54.6367L101.906 53.9219ZM94.3945 56.1719L101.918 53.4297L104.602 52.7852V55.0352L94.3945 59.3242V56.1719ZM122.32 43.9375H125.824V55.2109C125.824 56.5234 125.543 57.6289 124.98 58.5273C124.426 59.4258 123.656 60.1016 122.672 60.5547C121.695 61.0078 120.57 61.2344 119.297 61.2344C118.023 61.2344 116.891 61.0078 115.898 60.5547C114.914 60.1016 114.141 59.4258 113.578 58.5273C113.023 57.6289 112.746 56.5234 112.746 55.2109V43.9375H116.262V55.2109C116.262 55.9766 116.383 56.6016 116.625 57.0859C116.867 57.5703 117.215 57.9258 117.668 58.1523C118.129 58.3789 118.672 58.4922 119.297 58.4922C119.938 58.4922 120.48 58.3789 120.926 58.1523C121.379 57.9258 121.723 57.5703 121.957 57.0859C122.199 56.6016 122.32 55.9766 122.32 55.2109V43.9375ZM131.812 51.0273V61H128.438V48.3203H131.602L131.812 51.0273ZM131.32 54.2148H130.406C130.406 53.2773 130.527 52.4336 130.77 51.6836C131.012 50.9258 131.352 50.2812 131.789 49.75C132.227 49.2109 132.746 48.8008 133.348 48.5195C133.957 48.2305 134.637 48.0859 135.387 48.0859C135.98 48.0859 136.523 48.1719 137.016 48.3438C137.508 48.5156 137.93 48.7891 138.281 49.1641C138.641 49.5391 138.914 50.0352 139.102 50.6523C139.297 51.2695 139.395 52.0234 139.395 52.9141V61H135.996V52.9023C135.996 52.3398 135.918 51.9023 135.762 51.5898C135.605 51.2773 135.375 51.0586 135.07 50.9336C134.773 50.8008 134.406 50.7344 133.969 50.7344C133.516 50.7344 133.121 50.8242 132.785 51.0039C132.457 51.1836 132.184 51.4336 131.965 51.7539C131.754 52.0664 131.594 52.4336 131.484 52.8555C131.375 53.2773 131.32 53.7305 131.32 54.2148ZM145.523 48.3203V61H142.137V48.3203H145.523ZM141.926 45.0156C141.926 44.5234 142.098 44.1172 142.441 43.7969C142.785 43.4766 143.246 43.3164 143.824 43.3164C144.395 43.3164 144.852 43.4766 145.195 43.7969C145.547 44.1172 145.723 44.5234 145.723 45.0156C145.723 45.5078 145.547 45.9141 145.195 46.2344C144.852 46.5547 144.395 46.7148 143.824 46.7148C143.246 46.7148 142.785 46.5547 142.441 46.2344C142.098 45.9141 141.926 45.5078 141.926 45.0156ZM158.414 55.3398H161.918C161.848 56.4883 161.531 57.5078 160.969 58.3984C160.414 59.2891 159.637 59.9844 158.637 60.4844C157.645 60.9844 156.449 61.2344 155.051 61.2344C153.957 61.2344 152.977 61.0469 152.109 60.6719C151.242 60.2891 150.5 59.7422 149.883 59.0312C149.273 58.3203 148.809 57.4609 148.488 56.4531C148.168 55.4453 148.008 54.3164 148.008 53.0664V51.8828C148.008 50.6328 148.172 49.5039 148.5 48.4961C148.836 47.4805 149.312 46.6172 149.93 45.9062C150.555 45.1953 151.301 44.6484 152.168 44.2656C153.035 43.8828 154.004 43.6914 155.074 43.6914C156.496 43.6914 157.695 43.9492 158.672 44.4648C159.656 44.9805 160.418 45.6914 160.957 46.5977C161.504 47.5039 161.832 48.5352 161.941 49.6914H158.426C158.387 49.0039 158.25 48.4219 158.016 47.9453C157.781 47.4609 157.426 47.0977 156.949 46.8555C156.48 46.6055 155.855 46.4805 155.074 46.4805C154.488 46.4805 153.977 46.5898 153.539 46.8086C153.102 47.0273 152.734 47.3594 152.438 47.8047C152.141 48.25 151.918 48.8125 151.77 49.4922C151.629 50.1641 151.559 50.9531 151.559 51.8594V53.0664C151.559 53.9492 151.625 54.7266 151.758 55.3984C151.891 56.0625 152.094 56.625 152.367 57.0859C152.648 57.5391 153.008 57.8828 153.445 58.1172C153.891 58.3438 154.426 58.457 155.051 58.457C155.785 58.457 156.391 58.3398 156.867 58.1055C157.344 57.8711 157.707 57.5234 157.957 57.0625C158.215 56.6016 158.367 56.0273 158.414 55.3398ZM163.477 54.7891V54.543C163.477 53.6133 163.609 52.7578 163.875 51.9766C164.141 51.1875 164.527 50.5039 165.035 49.9258C165.543 49.3477 166.168 48.8984 166.91 48.5781C167.652 48.25 168.504 48.0859 169.465 48.0859C170.426 48.0859 171.281 48.25 172.031 48.5781C172.781 48.8984 173.41 49.3477 173.918 49.9258C174.434 50.5039 174.824 51.1875 175.09 51.9766C175.355 52.7578 175.488 53.6133 175.488 54.543V54.7891C175.488 55.7109 175.355 56.5664 175.09 57.3555C174.824 58.1367 174.434 58.8203 173.918 59.4062C173.41 59.9844 172.785 60.4336 172.043 60.7539C171.301 61.0742 170.449 61.2344 169.488 61.2344C168.527 61.2344 167.672 61.0742 166.922 60.7539C166.18 60.4336 165.551 59.9844 165.035 59.4062C164.527 58.8203 164.141 58.1367 163.875 57.3555C163.609 56.5664 163.477 55.7109 163.477 54.7891ZM166.852 54.543V54.7891C166.852 55.3203 166.898 55.8164 166.992 56.2773C167.086 56.7383 167.234 57.1445 167.438 57.4961C167.648 57.8398 167.922 58.1094 168.258 58.3047C168.594 58.5 169.004 58.5977 169.488 58.5977C169.957 58.5977 170.359 58.5 170.695 58.3047C171.031 58.1094 171.301 57.8398 171.504 57.4961C171.707 57.1445 171.855 56.7383 171.949 56.2773C172.051 55.8164 172.102 55.3203 172.102 54.7891V54.543C172.102 54.0273 172.051 53.543 171.949 53.0898C171.855 52.6289 171.703 52.2227 171.492 51.8711C171.289 51.5117 171.02 51.2305 170.684 51.0273C170.348 50.8242 169.941 50.7227 169.465 50.7227C168.988 50.7227 168.582 50.8242 168.246 51.0273C167.918 51.2305 167.648 51.5117 167.438 51.8711C167.234 52.2227 167.086 52.6289 166.992 53.0898C166.898 53.543 166.852 54.0273 166.852 54.543ZM180.867 51.0273V61H177.492V48.3203H180.656L180.867 51.0273ZM180.375 54.2148H179.461C179.461 53.2773 179.582 52.4336 179.824 51.6836C180.066 50.9258 180.406 50.2812 180.844 49.75C181.281 49.2109 181.801 48.8008 182.402 48.5195C183.012 48.2305 183.691 48.0859 184.441 48.0859C185.035 48.0859 185.578 48.1719 186.07 48.3438C186.562 48.5156 186.984 48.7891 187.336 49.1641C187.695 49.5391 187.969 50.0352 188.156 50.6523C188.352 51.2695 188.449 52.0234 188.449 52.9141V61H185.051V52.9023C185.051 52.3398 184.973 51.9023 184.816 51.5898C184.66 51.2773 184.43 51.0586 184.125 50.9336C183.828 50.8008 183.461 50.7344 183.023 50.7344C182.57 50.7344 182.176 50.8242 181.84 51.0039C181.512 51.1836 181.238 51.4336 181.02 51.7539C180.809 52.0664 180.648 52.4336 180.539 52.8555C180.43 53.2773 180.375 53.7305 180.375 54.2148ZM194.32 51.0273V61H190.945V48.3203H194.109L194.32 51.0273ZM193.828 54.2148H192.914C192.914 53.2773 193.035 52.4336 193.277 51.6836C193.52 50.9258 193.859 50.2812 194.297 49.75C194.734 49.2109 195.254 48.8008 195.855 48.5195C196.465 48.2305 197.145 48.0859 197.895 48.0859C198.488 48.0859 199.031 48.1719 199.523 48.3438C200.016 48.5156 200.438 48.7891 200.789 49.1641C201.148 49.5391 201.422 50.0352 201.609 50.6523C201.805 51.2695 201.902 52.0234 201.902 52.9141V61H198.504V52.9023C198.504 52.3398 198.426 51.9023 198.27 51.5898C198.113 51.2773 197.883 51.0586 197.578 50.9336C197.281 50.8008 196.914 50.7344 196.477 50.7344C196.023 50.7344 195.629 50.8242 195.293 51.0039C194.965 51.1836 194.691 51.4336 194.473 51.7539C194.262 52.0664 194.102 52.4336 193.992 52.8555C193.883 53.2773 193.828 53.7305 193.828 54.2148ZM210.305 61.2344C209.32 61.2344 208.438 61.0781 207.656 60.7656C206.875 60.4453 206.211 60.0039 205.664 59.4414C205.125 58.8789 204.711 58.2266 204.422 57.4844C204.133 56.7344 203.988 55.9375 203.988 55.0938V54.625C203.988 53.6641 204.125 52.7852 204.398 51.9883C204.672 51.1914 205.062 50.5 205.57 49.9141C206.086 49.3281 206.711 48.8789 207.445 48.5664C208.18 48.2461 209.008 48.0859 209.93 48.0859C210.828 48.0859 211.625 48.2344 212.32 48.5312C213.016 48.8281 213.598 49.25 214.066 49.7969C214.543 50.3438 214.902 51 215.145 51.7656C215.387 52.5234 215.508 53.3672 215.508 54.2969V55.7031H205.43V53.4531H212.191V53.1953C212.191 52.7266 212.105 52.3086 211.934 51.9414C211.77 51.5664 211.52 51.2695 211.184 51.0508C210.848 50.832 210.418 50.7227 209.895 50.7227C209.449 50.7227 209.066 50.8203 208.746 51.0156C208.426 51.2109 208.164 51.4844 207.961 51.8359C207.766 52.1875 207.617 52.6016 207.516 53.0781C207.422 53.5469 207.375 54.0625 207.375 54.625V55.0938C207.375 55.6016 207.445 56.0703 207.586 56.5C207.734 56.9297 207.941 57.3008 208.207 57.6133C208.48 57.9258 208.809 58.168 209.191 58.3398C209.582 58.5117 210.023 58.5977 210.516 58.5977C211.125 58.5977 211.691 58.4805 212.215 58.2461C212.746 58.0039 213.203 57.6406 213.586 57.1562L215.227 58.9375C214.961 59.3203 214.598 59.6875 214.137 60.0391C213.684 60.3906 213.137 60.6797 212.496 60.9062C211.855 61.125 211.125 61.2344 210.305 61.2344ZM222.668 58.5977C223.082 58.5977 223.449 58.5195 223.77 58.3633C224.09 58.1992 224.34 57.9727 224.52 57.6836C224.707 57.3867 224.805 57.0391 224.812 56.6406H227.988C227.98 57.5312 227.742 58.3242 227.273 59.0195C226.805 59.707 226.176 60.25 225.387 60.6484C224.598 61.0391 223.715 61.2344 222.738 61.2344C221.754 61.2344 220.895 61.0703 220.16 60.7422C219.434 60.4141 218.828 59.9609 218.344 59.3828C217.859 58.7969 217.496 58.1172 217.254 57.3438C217.012 56.5625 216.891 55.7266 216.891 54.8359V54.4961C216.891 53.5977 217.012 52.7617 217.254 51.9883C217.496 51.207 217.859 50.5273 218.344 49.9492C218.828 49.3633 219.434 48.9062 220.16 48.5781C220.887 48.25 221.738 48.0859 222.715 48.0859C223.754 48.0859 224.664 48.2852 225.445 48.6836C226.234 49.082 226.852 49.6523 227.297 50.3945C227.75 51.1289 227.98 52 227.988 53.0078H224.812C224.805 52.5859 224.715 52.2031 224.543 51.8594C224.379 51.5156 224.137 51.2422 223.816 51.0391C223.504 50.8281 223.117 50.7227 222.656 50.7227C222.164 50.7227 221.762 50.8281 221.449 51.0391C221.137 51.2422 220.895 51.5234 220.723 51.8828C220.551 52.2344 220.43 52.6367 220.359 53.0898C220.297 53.5352 220.266 54.0039 220.266 54.4961V54.8359C220.266 55.3281 220.297 55.8008 220.359 56.2539C220.422 56.707 220.539 57.1094 220.711 57.4609C220.891 57.8125 221.137 58.0898 221.449 58.293C221.762 58.4961 222.168 58.5977 222.668 58.5977ZM236.156 48.3203V50.7109H228.773V48.3203H236.156ZM230.602 45.1914H233.977V57.1797C233.977 57.5469 234.023 57.8281 234.117 58.0234C234.219 58.2188 234.367 58.3555 234.562 58.4336C234.758 58.5039 235.004 58.5391 235.301 58.5391C235.512 58.5391 235.699 58.5312 235.863 58.5156C236.035 58.4922 236.18 58.4688 236.297 58.4453L236.309 60.9297C236.02 61.0234 235.707 61.0977 235.371 61.1523C235.035 61.207 234.664 61.2344 234.258 61.2344C233.516 61.2344 232.867 61.1133 232.312 60.8711C231.766 60.6211 231.344 60.2227 231.047 59.6758C230.75 59.1289 230.602 58.4102 230.602 57.5195V45.1914Z" fill="#888888"/>
<path d="M109.219 107.422H100.734V101.07H109.219C110.375 101.07 111.312 100.875 112.031 100.484C112.75 100.094 113.273 99.5547 113.602 98.8672C113.945 98.1641 114.117 97.375 114.117 96.5C114.117 95.5625 113.945 94.6953 113.602 93.8984C113.273 93.1016 112.75 92.4609 112.031 91.9766C111.312 91.4766 110.375 91.2266 109.219 91.2266H103.828V119H95.6016V84.875H109.219C111.953 84.875 114.305 85.375 116.273 86.375C118.258 87.375 119.781 88.75 120.844 90.5C121.906 92.2344 122.438 94.2188 122.438 96.4531C122.438 98.6562 121.906 100.578 120.844 102.219C119.781 103.859 118.258 105.141 116.273 106.062C114.305 106.969 111.953 107.422 109.219 107.422ZM134.461 99.9219V119H126.562V93.6406H133.945L134.461 99.9219ZM141.961 93.4531L141.82 100.789C141.508 100.758 141.086 100.719 140.555 100.672C140.023 100.625 139.578 100.602 139.219 100.602C138.297 100.602 137.5 100.711 136.828 100.93C136.172 101.133 135.625 101.445 135.188 101.867C134.766 102.273 134.453 102.789 134.25 103.414C134.062 104.039 133.977 104.766 133.992 105.594L132.562 104.656C132.562 102.953 132.727 101.406 133.055 100.016C133.398 98.6094 133.883 97.3984 134.508 96.3828C135.133 95.3516 135.891 94.5625 136.781 94.0156C137.672 93.4531 138.672 93.1719 139.781 93.1719C140.172 93.1719 140.555 93.1953 140.93 93.2422C141.32 93.2891 141.664 93.3594 141.961 93.4531ZM142.852 106.578V106.086C142.852 104.227 143.117 102.516 143.648 100.953C144.18 99.375 144.961 98.0078 145.992 96.8516C147.023 95.6953 148.297 94.7969 149.812 94.1562C151.328 93.5 153.078 93.1719 155.062 93.1719C157.062 93.1719 158.82 93.5 160.336 94.1562C161.867 94.7969 163.148 95.6953 164.18 96.8516C165.211 98.0078 165.992 99.375 166.523 100.953C167.055 102.516 167.32 104.227 167.32 106.086V106.578C167.32 108.422 167.055 110.133 166.523 111.711C165.992 113.273 165.211 114.641 164.18 115.812C163.148 116.969 161.875 117.867 160.359 118.508C158.844 119.148 157.094 119.469 155.109 119.469C153.125 119.469 151.367 119.148 149.836 118.508C148.305 117.867 147.023 116.969 145.992 115.812C144.961 114.641 144.18 113.273 143.648 111.711C143.117 110.133 142.852 108.422 142.852 106.578ZM150.75 106.086V106.578C150.75 107.531 150.82 108.422 150.961 109.25C151.102 110.078 151.336 110.805 151.664 111.43C151.992 112.039 152.438 112.516 153 112.859C153.562 113.203 154.266 113.375 155.109 113.375C155.938 113.375 156.625 113.203 157.172 112.859C157.734 112.516 158.18 112.039 158.508 111.43C158.836 110.805 159.07 110.078 159.211 109.25C159.352 108.422 159.422 107.531 159.422 106.578V106.086C159.422 105.164 159.352 104.297 159.211 103.484C159.07 102.656 158.836 101.93 158.508 101.305C158.18 100.664 157.734 100.164 157.172 99.8047C156.609 99.4453 155.906 99.2656 155.062 99.2656C154.234 99.2656 153.539 99.4453 152.977 99.8047C152.43 100.164 151.992 100.664 151.664 101.305C151.336 101.93 151.102 102.656 150.961 103.484C150.82 104.297 150.75 105.164 150.75 106.086ZM184.195 93.6406V99.125H168.914V93.6406H184.195ZM172.125 87.3359H180.023V110.727C180.023 111.398 180.102 111.922 180.258 112.297C180.414 112.656 180.68 112.914 181.055 113.07C181.445 113.211 181.961 113.281 182.602 113.281C183.055 113.281 183.43 113.273 183.727 113.258C184.023 113.227 184.305 113.188 184.57 113.141V118.789C183.898 119.008 183.195 119.172 182.461 119.281C181.727 119.406 180.945 119.469 180.117 119.469C178.43 119.469 176.984 119.203 175.781 118.672C174.594 118.141 173.688 117.305 173.062 116.164C172.438 115.023 172.125 113.539 172.125 111.711V87.3359ZM185.648 106.578V106.086C185.648 104.227 185.914 102.516 186.445 100.953C186.977 99.375 187.758 98.0078 188.789 96.8516C189.82 95.6953 191.094 94.7969 192.609 94.1562C194.125 93.5 195.875 93.1719 197.859 93.1719C199.859 93.1719 201.617 93.5 203.133 94.1562C204.664 94.7969 205.945 95.6953 206.977 96.8516C208.008 98.0078 208.789 99.375 209.32 100.953C209.852 102.516 210.117 104.227 210.117 106.086V106.578C210.117 108.422 209.852 110.133 209.32 111.711C208.789 113.273 208.008 114.641 206.977 115.812C205.945 116.969 204.672 117.867 203.156 118.508C201.641 119.148 199.891 119.469 197.906 119.469C195.922 119.469 194.164 119.148 192.633 118.508C191.102 117.867 189.82 116.969 188.789 115.812C187.758 114.641 186.977 113.273 186.445 111.711C185.914 110.133 185.648 108.422 185.648 106.578ZM193.547 106.086V106.578C193.547 107.531 193.617 108.422 193.758 109.25C193.898 110.078 194.133 110.805 194.461 111.43C194.789 112.039 195.234 112.516 195.797 112.859C196.359 113.203 197.062 113.375 197.906 113.375C198.734 113.375 199.422 113.203 199.969 112.859C200.531 112.516 200.977 112.039 201.305 111.43C201.633 110.805 201.867 110.078 202.008 109.25C202.148 108.422 202.219 107.531 202.219 106.578V106.086C202.219 105.164 202.148 104.297 202.008 103.484C201.867 102.656 201.633 101.93 201.305 101.305C200.977 100.664 200.531 100.164 199.969 99.8047C199.406 99.4453 198.703 99.2656 197.859 99.2656C197.031 99.2656 196.336 99.4453 195.773 99.8047C195.227 100.164 194.789 100.664 194.461 101.305C194.133 101.93 193.898 102.656 193.758 103.484C193.617 104.297 193.547 105.164 193.547 106.086ZM226.992 93.6406V99.125H211.711V93.6406H226.992ZM214.922 87.3359H222.82V110.727C222.82 111.398 222.898 111.922 223.055 112.297C223.211 112.656 223.477 112.914 223.852 113.07C224.242 113.211 224.758 113.281 225.398 113.281C225.852 113.281 226.227 113.273 226.523 113.258C226.82 113.227 227.102 113.188 227.367 113.141V118.789C226.695 119.008 225.992 119.172 225.258 119.281C224.523 119.406 223.742 119.469 222.914 119.469C221.227 119.469 219.781 119.203 218.578 118.672C217.391 118.141 216.484 117.305 215.859 116.164C215.234 115.023 214.922 113.539 214.922 111.711V87.3359ZM237.914 116.023L244.477 93.6406H252.961L242.766 122.773C242.547 123.414 242.258 124.102 241.898 124.836C241.539 125.586 241.047 126.297 240.422 126.969C239.797 127.641 238.992 128.188 238.008 128.609C237.039 129.031 235.836 129.242 234.398 129.242C233.633 129.242 233.07 129.203 232.711 129.125C232.367 129.062 231.836 128.945 231.117 128.773V123.125C231.32 123.125 231.492 123.125 231.633 123.125C231.789 123.125 231.961 123.125 232.148 123.125C232.992 123.125 233.664 123.039 234.164 122.867C234.68 122.695 235.07 122.445 235.336 122.117C235.617 121.789 235.836 121.391 235.992 120.922L237.914 116.023ZM236.25 93.6406L241.242 111.383L242.109 119.75H236.812L227.789 93.6406H236.25ZM262.992 98.5156V128.75H255.094V93.6406H262.453L262.992 98.5156ZM278.555 106.016V106.508C278.555 108.352 278.344 110.062 277.922 111.641C277.5 113.219 276.875 114.594 276.047 115.766C275.219 116.938 274.188 117.852 272.953 118.508C271.734 119.148 270.32 119.469 268.711 119.469C267.195 119.469 265.891 119.133 264.797 118.461C263.703 117.789 262.789 116.859 262.055 115.672C261.32 114.484 260.727 113.125 260.273 111.594C259.82 110.062 259.461 108.445 259.195 106.742V106.109C259.461 104.281 259.82 102.586 260.273 101.023C260.727 99.4453 261.32 98.0703 262.055 96.8984C262.789 95.7266 263.695 94.8125 264.773 94.1562C265.867 93.5 267.172 93.1719 268.688 93.1719C270.297 93.1719 271.711 93.4766 272.93 94.0859C274.164 94.6953 275.195 95.5703 276.023 96.7109C276.867 97.8359 277.5 99.1875 277.922 100.766C278.344 102.344 278.555 104.094 278.555 106.016ZM270.656 106.508V106.016C270.656 105.031 270.586 104.133 270.445 103.32C270.305 102.492 270.078 101.773 269.766 101.164C269.469 100.555 269.07 100.086 268.57 99.7578C268.07 99.4297 267.453 99.2656 266.719 99.2656C265.875 99.2656 265.164 99.3984 264.586 99.6641C264.023 99.9141 263.57 100.305 263.227 100.836C262.898 101.352 262.664 102 262.523 102.781C262.398 103.547 262.344 104.445 262.359 105.477V107.398C262.328 108.586 262.445 109.633 262.711 110.539C262.977 111.43 263.438 112.125 264.094 112.625C264.75 113.125 265.641 113.375 266.766 113.375C267.516 113.375 268.141 113.203 268.641 112.859C269.141 112.5 269.539 112.008 269.836 111.383C270.133 110.742 270.344 110.008 270.469 109.18C270.594 108.352 270.656 107.461 270.656 106.508ZM290.414 93.6406V119H282.492V93.6406H290.414ZM282.023 87.1016C282.023 85.9766 282.43 85.0547 283.242 84.3359C284.055 83.6172 285.109 83.2578 286.406 83.2578C287.703 83.2578 288.758 83.6172 289.57 84.3359C290.383 85.0547 290.789 85.9766 290.789 87.1016C290.789 88.2266 290.383 89.1484 289.57 89.8672C288.758 90.5859 287.703 90.9453 286.406 90.9453C285.109 90.9453 284.055 90.5859 283.242 89.8672C282.43 89.1484 282.023 88.2266 282.023 87.1016ZM303.047 99.0547V119H295.148V93.6406H302.555L303.047 99.0547ZM302.109 105.453L300.258 105.5C300.258 103.562 300.492 101.836 300.961 100.32C301.43 98.7891 302.094 97.4922 302.953 96.4297C303.812 95.3672 304.836 94.5625 306.023 94.0156C307.227 93.4531 308.562 93.1719 310.031 93.1719C311.203 93.1719 312.273 93.3438 313.242 93.6875C314.227 94.0312 315.07 94.5859 315.773 95.3516C316.492 96.1172 317.039 97.1328 317.414 98.3984C317.805 99.6484 318 101.195 318 103.039V119H310.055V103.016C310.055 102 309.914 101.227 309.633 100.695C309.352 100.148 308.945 99.7734 308.414 99.5703C307.883 99.3672 307.234 99.2656 306.469 99.2656C305.656 99.2656 304.969 99.4219 304.406 99.7344C303.844 100.047 303.391 100.484 303.047 101.047C302.719 101.594 302.477 102.242 302.32 102.992C302.18 103.742 302.109 104.562 302.109 105.453ZM338.32 93.6406H345.492V118.016C345.492 120.359 344.953 122.344 343.875 123.969C342.797 125.609 341.289 126.852 339.352 127.695C337.43 128.555 335.18 128.984 332.602 128.984C331.461 128.984 330.297 128.836 329.109 128.539C327.922 128.258 326.812 127.836 325.781 127.273C324.75 126.711 323.883 126.016 323.18 125.188L326.484 120.547C327.125 121.266 327.93 121.875 328.898 122.375C329.867 122.891 331.008 123.148 332.32 123.148C333.461 123.148 334.414 122.945 335.18 122.539C335.961 122.133 336.555 121.539 336.961 120.758C337.367 119.992 337.57 119.062 337.57 117.969V99.6406L338.32 93.6406ZM321.469 106.625V106.133C321.469 104.211 321.703 102.461 322.172 100.883C322.656 99.2891 323.344 97.9219 324.234 96.7812C325.141 95.625 326.234 94.7344 327.516 94.1094C328.797 93.4844 330.242 93.1719 331.852 93.1719C333.586 93.1719 335.008 93.5078 336.117 94.1797C337.242 94.8359 338.141 95.7578 338.812 96.9453C339.5 98.1328 340.031 99.5234 340.406 101.117C340.797 102.695 341.125 104.398 341.391 106.227V106.812C341.125 108.531 340.758 110.156 340.289 111.688C339.836 113.203 339.242 114.547 338.508 115.719C337.773 116.891 336.852 117.812 335.742 118.484C334.648 119.141 333.336 119.469 331.805 119.469C330.211 119.469 328.773 119.148 327.492 118.508C326.227 117.867 325.141 116.969 324.234 115.812C323.344 114.656 322.656 113.297 322.172 111.734C321.703 110.172 321.469 108.469 321.469 106.625ZM329.367 106.133V106.625C329.367 107.578 329.453 108.461 329.625 109.273C329.812 110.086 330.094 110.805 330.469 111.43C330.844 112.039 331.305 112.516 331.852 112.859C332.414 113.203 333.07 113.375 333.82 113.375C334.961 113.375 335.883 113.133 336.586 112.648C337.289 112.164 337.797 111.477 338.109 110.586C338.422 109.695 338.555 108.648 338.508 107.445V105.594C338.539 104.562 338.469 103.656 338.297 102.875C338.125 102.078 337.852 101.414 337.477 100.883C337.117 100.352 336.633 99.9531 336.023 99.6875C335.43 99.4062 334.711 99.2656 333.867 99.2656C333.133 99.2656 332.484 99.4375 331.922 99.7812C331.359 100.125 330.891 100.609 330.516 101.234C330.141 101.844 329.852 102.57 329.648 103.414C329.461 104.242 329.367 105.148 329.367 106.133Z" fill="black"/>
<path d="M1134 0H1348C1356.28 0 1363 6.71573 1363 15V148C1363 156.284 1356.28 163 1348 163H1134V0Z" fill="#0E80D4"/>
<path fill-rule="evenodd" clip-rule="evenodd" d="M1202.75 46.5018C1202.75 45.3973 1203.65 44.5018 1204.75 44.5018H1292.25C1293.35 44.5018 1294.25 45.3973 1294.25 46.5018V116.498C1294.25 117.603 1293.35 118.498 1292.25 118.498H1204.75C1203.65 118.498 1202.75 117.603 1202.75 116.498V46.5018ZM1206.75 48.5018V52.9963H1290.25V48.5018H1206.75ZM1290.25 56.9963H1235.19V114.498H1290.25V56.9963ZM1231.19 114.498V56.9963H1206.75V114.498H1231.19Z" fill="white"/>
<path fill-rule="evenodd" clip-rule="evenodd" d="M1209.72 62.3022C1209.72 61.1976 1210.62 60.3022 1211.72 60.3022H1225.72C1226.83 60.3022 1227.72 61.1976 1227.72 62.3022V81.6974C1227.72 82.802 1226.83 83.6974 1225.72 83.6974H1211.72C1210.62 83.6974 1209.72 82.802 1209.72 81.6974V62.3022ZM1213.72 64.3022V79.6974H1223.72V64.3022H1213.72ZM1239.33 63.1982C1239.33 62.0936 1240.22 61.1982 1241.33 61.1982H1284.25C1285.36 61.1982 1286.25 62.0936 1286.25 63.1982V109.407C1286.25 110.511 1285.36 111.407 1284.25 111.407H1241.33C1240.22 111.407 1239.33 110.511 1239.33 109.407V63.1982ZM1243.33 65.1982V107.407H1282.25V65.1982H1243.33ZM1209.56 93.4381C1209.56 92.3336 1210.46 91.4381 1211.56 91.4381H1220.48C1221.59 91.4381 1222.48 92.3336 1222.48 93.4381C1222.48 94.5427 1221.59 95.4381 1220.48 95.4381H1211.56C1210.46 95.4381 1209.56 94.5427 1209.56 93.4381ZM1209.56 100.438C1209.56 99.3335 1210.46 98.4381 1211.56 98.4381H1226.1C1227.21 98.4381 1228.1 99.3335 1228.1 100.438C1228.1 101.543 1227.21 102.438 1226.1 102.438H1211.56C1210.46 102.438 1209.56 101.543 1209.56 100.438ZM1209.56 107.438C1209.56 106.334 1210.46 105.438 1211.56 105.438H1220.48C1221.59 105.438 1222.48 106.334 1222.48 107.438C1222.48 108.543 1221.59 109.438 1220.48 109.438H1211.56C1210.46 109.438 1209.56 108.543 1209.56 107.438Z" fill="white"/>
</svg>
