<svg width="1363" height="163" viewBox="0 0 1363 163" fill="none" xmlns="http://www.w3.org/2000/svg">
<path d="M0 15C0 6.71573 6.71573 0 15 0H37V163H15C6.71573 163 0 156.284 0 148V15Z" fill="#424242"/>
<rect width="1097" height="163" transform="translate(37)" fill="#F0F0F0"/>
<path d="M101.906 53.9219L94.3945 51.2383V48.0859L104.602 52.375V54.6367L101.906 53.9219ZM94.3945 56.1719L101.918 53.4297L104.602 52.7852V55.0352L94.3945 59.3242V56.1719ZM122.32 43.9375H125.824V55.2109C125.824 56.5234 125.543 57.6289 124.98 58.5273C124.426 59.4258 123.656 60.1016 122.672 60.5547C121.695 61.0078 120.57 61.2344 119.297 61.2344C118.023 61.2344 116.891 61.0078 115.898 60.5547C114.914 60.1016 114.141 59.4258 113.578 58.5273C113.023 57.6289 112.746 56.5234 112.746 55.2109V43.9375H116.262V55.2109C116.262 55.9766 116.383 56.6016 116.625 57.0859C116.867 57.5703 117.215 57.9258 117.668 58.1523C118.129 58.3789 118.672 58.4922 119.297 58.4922C119.938 58.4922 120.48 58.3789 120.926 58.1523C121.379 57.9258 121.723 57.5703 121.957 57.0859C122.199 56.6016 122.32 55.9766 122.32 55.2109V43.9375ZM131.812 51.0273V61H128.438V48.3203H131.602L131.812 51.0273ZM131.32 54.2148H130.406C130.406 53.2773 130.527 52.4336 130.77 51.6836C131.012 50.9258 131.352 50.2812 131.789 49.75C132.227 49.2109 132.746 48.8008 133.348 48.5195C133.957 48.2305 134.637 48.0859 135.387 48.0859C135.98 48.0859 136.523 48.1719 137.016 48.3438C137.508 48.5156 137.93 48.7891 138.281 49.1641C138.641 49.5391 138.914 50.0352 139.102 50.6523C139.297 51.2695 139.395 52.0234 139.395 52.9141V61H135.996V52.9023C135.996 52.3398 135.918 51.9023 135.762 51.5898C135.605 51.2773 135.375 51.0586 135.07 50.9336C134.773 50.8008 134.406 50.7344 133.969 50.7344C133.516 50.7344 133.121 50.8242 132.785 51.0039C132.457 51.1836 132.184 51.4336 131.965 51.7539C131.754 52.0664 131.594 52.4336 131.484 52.8555C131.375 53.2773 131.32 53.7305 131.32 54.2148ZM145.523 48.3203V61H142.137V48.3203H145.523ZM141.926 45.0156C141.926 44.5234 142.098 44.1172 142.441 43.7969C142.785 43.4766 143.246 43.3164 143.824 43.3164C144.395 43.3164 144.852 43.4766 145.195 43.7969C145.547 44.1172 145.723 44.5234 145.723 45.0156C145.723 45.5078 145.547 45.9141 145.195 46.2344C144.852 46.5547 144.395 46.7148 143.824 46.7148C143.246 46.7148 142.785 46.5547 142.441 46.2344C142.098 45.9141 141.926 45.5078 141.926 45.0156ZM158.414 55.3398H161.918C161.848 56.4883 161.531 57.5078 160.969 58.3984C160.414 59.2891 159.637 59.9844 158.637 60.4844C157.645 60.9844 156.449 61.2344 155.051 61.2344C153.957 61.2344 152.977 61.0469 152.109 60.6719C151.242 60.2891 150.5 59.7422 149.883 59.0312C149.273 58.3203 148.809 57.4609 148.488 56.4531C148.168 55.4453 148.008 54.3164 148.008 53.0664V51.8828C148.008 50.6328 148.172 49.5039 148.5 48.4961C148.836 47.4805 149.312 46.6172 149.93 45.9062C150.555 45.1953 151.301 44.6484 152.168 44.2656C153.035 43.8828 154.004 43.6914 155.074 43.6914C156.496 43.6914 157.695 43.9492 158.672 44.4648C159.656 44.9805 160.418 45.6914 160.957 46.5977C161.504 47.5039 161.832 48.5352 161.941 49.6914H158.426C158.387 49.0039 158.25 48.4219 158.016 47.9453C157.781 47.4609 157.426 47.0977 156.949 46.8555C156.48 46.6055 155.855 46.4805 155.074 46.4805C154.488 46.4805 153.977 46.5898 153.539 46.8086C153.102 47.0273 152.734 47.3594 152.438 47.8047C152.141 48.25 151.918 48.8125 151.77 49.4922C151.629 50.1641 151.559 50.9531 151.559 51.8594V53.0664C151.559 53.9492 151.625 54.7266 151.758 55.3984C151.891 56.0625 152.094 56.625 152.367 57.0859C152.648 57.5391 153.008 57.8828 153.445 58.1172C153.891 58.3438 154.426 58.457 155.051 58.457C155.785 58.457 156.391 58.3398 156.867 58.1055C157.344 57.8711 157.707 57.5234 157.957 57.0625C158.215 56.6016 158.367 56.0273 158.414 55.3398ZM163.477 54.7891V54.543C163.477 53.6133 163.609 52.7578 163.875 51.9766C164.141 51.1875 164.527 50.5039 165.035 49.9258C165.543 49.3477 166.168 48.8984 166.91 48.5781C167.652 48.25 168.504 48.0859 169.465 48.0859C170.426 48.0859 171.281 48.25 172.031 48.5781C172.781 48.8984 173.41 49.3477 173.918 49.9258C174.434 50.5039 174.824 51.1875 175.09 51.9766C175.355 52.7578 175.488 53.6133 175.488 54.543V54.7891C175.488 55.7109 175.355 56.5664 175.09 57.3555C174.824 58.1367 174.434 58.8203 173.918 59.4062C173.41 59.9844 172.785 60.4336 172.043 60.7539C171.301 61.0742 170.449 61.2344 169.488 61.2344C168.527 61.2344 167.672 61.0742 166.922 60.7539C166.18 60.4336 165.551 59.9844 165.035 59.4062C164.527 58.8203 164.141 58.1367 163.875 57.3555C163.609 56.5664 163.477 55.7109 163.477 54.7891ZM166.852 54.543V54.7891C166.852 55.3203 166.898 55.8164 166.992 56.2773C167.086 56.7383 167.234 57.1445 167.438 57.4961C167.648 57.8398 167.922 58.1094 168.258 58.3047C168.594 58.5 169.004 58.5977 169.488 58.5977C169.957 58.5977 170.359 58.5 170.695 58.3047C171.031 58.1094 171.301 57.8398 171.504 57.4961C171.707 57.1445 171.855 56.7383 171.949 56.2773C172.051 55.8164 172.102 55.3203 172.102 54.7891V54.543C172.102 54.0273 172.051 53.543 171.949 53.0898C171.855 52.6289 171.703 52.2227 171.492 51.8711C171.289 51.5117 171.02 51.2305 170.684 51.0273C170.348 50.8242 169.941 50.7227 169.465 50.7227C168.988 50.7227 168.582 50.8242 168.246 51.0273C167.918 51.2305 167.648 51.5117 167.438 51.8711C167.234 52.2227 167.086 52.6289 166.992 53.0898C166.898 53.543 166.852 54.0273 166.852 54.543ZM180.867 51.0273V61H177.492V48.3203H180.656L180.867 51.0273ZM180.375 54.2148H179.461C179.461 53.2773 179.582 52.4336 179.824 51.6836C180.066 50.9258 180.406 50.2812 180.844 49.75C181.281 49.2109 181.801 48.8008 182.402 48.5195C183.012 48.2305 183.691 48.0859 184.441 48.0859C185.035 48.0859 185.578 48.1719 186.07 48.3438C186.562 48.5156 186.984 48.7891 187.336 49.1641C187.695 49.5391 187.969 50.0352 188.156 50.6523C188.352 51.2695 188.449 52.0234 188.449 52.9141V61H185.051V52.9023C185.051 52.3398 184.973 51.9023 184.816 51.5898C184.66 51.2773 184.43 51.0586 184.125 50.9336C183.828 50.8008 183.461 50.7344 183.023 50.7344C182.57 50.7344 182.176 50.8242 181.84 51.0039C181.512 51.1836 181.238 51.4336 181.02 51.7539C180.809 52.0664 180.648 52.4336 180.539 52.8555C180.43 53.2773 180.375 53.7305 180.375 54.2148ZM194.32 51.0273V61H190.945V48.3203H194.109L194.32 51.0273ZM193.828 54.2148H192.914C192.914 53.2773 193.035 52.4336 193.277 51.6836C193.52 50.9258 193.859 50.2812 194.297 49.75C194.734 49.2109 195.254 48.8008 195.855 48.5195C196.465 48.2305 197.145 48.0859 197.895 48.0859C198.488 48.0859 199.031 48.1719 199.523 48.3438C200.016 48.5156 200.438 48.7891 200.789 49.1641C201.148 49.5391 201.422 50.0352 201.609 50.6523C201.805 51.2695 201.902 52.0234 201.902 52.9141V61H198.504V52.9023C198.504 52.3398 198.426 51.9023 198.27 51.5898C198.113 51.2773 197.883 51.0586 197.578 50.9336C197.281 50.8008 196.914 50.7344 196.477 50.7344C196.023 50.7344 195.629 50.8242 195.293 51.0039C194.965 51.1836 194.691 51.4336 194.473 51.7539C194.262 52.0664 194.102 52.4336 193.992 52.8555C193.883 53.2773 193.828 53.7305 193.828 54.2148ZM210.305 61.2344C209.32 61.2344 208.438 61.0781 207.656 60.7656C206.875 60.4453 206.211 60.0039 205.664 59.4414C205.125 58.8789 204.711 58.2266 204.422 57.4844C204.133 56.7344 203.988 55.9375 203.988 55.0938V54.625C203.988 53.6641 204.125 52.7852 204.398 51.9883C204.672 51.1914 205.062 50.5 205.57 49.9141C206.086 49.3281 206.711 48.8789 207.445 48.5664C208.18 48.2461 209.008 48.0859 209.93 48.0859C210.828 48.0859 211.625 48.2344 212.32 48.5312C213.016 48.8281 213.598 49.25 214.066 49.7969C214.543 50.3438 214.902 51 215.145 51.7656C215.387 52.5234 215.508 53.3672 215.508 54.2969V55.7031H205.43V53.4531H212.191V53.1953C212.191 52.7266 212.105 52.3086 211.934 51.9414C211.77 51.5664 211.52 51.2695 211.184 51.0508C210.848 50.832 210.418 50.7227 209.895 50.7227C209.449 50.7227 209.066 50.8203 208.746 51.0156C208.426 51.2109 208.164 51.4844 207.961 51.8359C207.766 52.1875 207.617 52.6016 207.516 53.0781C207.422 53.5469 207.375 54.0625 207.375 54.625V55.0938C207.375 55.6016 207.445 56.0703 207.586 56.5C207.734 56.9297 207.941 57.3008 208.207 57.6133C208.48 57.9258 208.809 58.168 209.191 58.3398C209.582 58.5117 210.023 58.5977 210.516 58.5977C211.125 58.5977 211.691 58.4805 212.215 58.2461C212.746 58.0039 213.203 57.6406 213.586 57.1562L215.227 58.9375C214.961 59.3203 214.598 59.6875 214.137 60.0391C213.684 60.3906 213.137 60.6797 212.496 60.9062C211.855 61.125 211.125 61.2344 210.305 61.2344ZM222.668 58.5977C223.082 58.5977 223.449 58.5195 223.77 58.3633C224.09 58.1992 224.34 57.9727 224.52 57.6836C224.707 57.3867 224.805 57.0391 224.812 56.6406H227.988C227.98 57.5312 227.742 58.3242 227.273 59.0195C226.805 59.707 226.176 60.25 225.387 60.6484C224.598 61.0391 223.715 61.2344 222.738 61.2344C221.754 61.2344 220.895 61.0703 220.16 60.7422C219.434 60.4141 218.828 59.9609 218.344 59.3828C217.859 58.7969 217.496 58.1172 217.254 57.3438C217.012 56.5625 216.891 55.7266 216.891 54.8359V54.4961C216.891 53.5977 217.012 52.7617 217.254 51.9883C217.496 51.207 217.859 50.5273 218.344 49.9492C218.828 49.3633 219.434 48.9062 220.16 48.5781C220.887 48.25 221.738 48.0859 222.715 48.0859C223.754 48.0859 224.664 48.2852 225.445 48.6836C226.234 49.082 226.852 49.6523 227.297 50.3945C227.75 51.1289 227.98 52 227.988 53.0078H224.812C224.805 52.5859 224.715 52.2031 224.543 51.8594C224.379 51.5156 224.137 51.2422 223.816 51.0391C223.504 50.8281 223.117 50.7227 222.656 50.7227C222.164 50.7227 221.762 50.8281 221.449 51.0391C221.137 51.2422 220.895 51.5234 220.723 51.8828C220.551 52.2344 220.43 52.6367 220.359 53.0898C220.297 53.5352 220.266 54.0039 220.266 54.4961V54.8359C220.266 55.3281 220.297 55.8008 220.359 56.2539C220.422 56.707 220.539 57.1094 220.711 57.4609C220.891 57.8125 221.137 58.0898 221.449 58.293C221.762 58.4961 222.168 58.5977 222.668 58.5977ZM236.156 48.3203V50.7109H228.773V48.3203H236.156ZM230.602 45.1914H233.977V57.1797C233.977 57.5469 234.023 57.8281 234.117 58.0234C234.219 58.2188 234.367 58.3555 234.562 58.4336C234.758 58.5039 235.004 58.5391 235.301 58.5391C235.512 58.5391 235.699 58.5312 235.863 58.5156C236.035 58.4922 236.18 58.4688 236.297 58.4453L236.309 60.9297C236.02 61.0234 235.707 61.0977 235.371 61.1523C235.035 61.207 234.664 61.2344 234.258 61.2344C233.516 61.2344 232.867 61.1133 232.312 60.8711C231.766 60.6211 231.344 60.2227 231.047 59.6758C230.75 59.1289 230.602 58.4102 230.602 57.5195V45.1914Z" fill="#888888"/>
<path d="M118.594 98.4219V104.75H101.086V98.4219H118.594ZM103.828 84.875V119H95.6016V84.875H103.828ZM124.125 84.875V119H115.922V84.875H124.125ZM127.992 106.578V106.086C127.992 104.227 128.258 102.516 128.789 100.953C129.32 99.375 130.102 98.0078 131.133 96.8516C132.164 95.6953 133.438 94.7969 134.953 94.1562C136.469 93.5 138.219 93.1719 140.203 93.1719C142.203 93.1719 143.961 93.5 145.477 94.1562C147.008 94.7969 148.289 95.6953 149.32 96.8516C150.352 98.0078 151.133 99.375 151.664 100.953C152.195 102.516 152.461 104.227 152.461 106.086V106.578C152.461 108.422 152.195 110.133 151.664 111.711C151.133 113.273 150.352 114.641 149.32 115.812C148.289 116.969 147.016 117.867 145.5 118.508C143.984 119.148 142.234 119.469 140.25 119.469C138.266 119.469 136.508 119.148 134.977 118.508C133.445 117.867 132.164 116.969 131.133 115.812C130.102 114.641 129.32 113.273 128.789 111.711C128.258 110.133 127.992 108.422 127.992 106.578ZM135.891 106.086V106.578C135.891 107.531 135.961 108.422 136.102 109.25C136.242 110.078 136.477 110.805 136.805 111.43C137.133 112.039 137.578 112.516 138.141 112.859C138.703 113.203 139.406 113.375 140.25 113.375C141.078 113.375 141.766 113.203 142.312 112.859C142.875 112.516 143.32 112.039 143.648 111.43C143.977 110.805 144.211 110.078 144.352 109.25C144.492 108.422 144.562 107.531 144.562 106.578V106.086C144.562 105.164 144.492 104.297 144.352 103.484C144.211 102.656 143.977 101.93 143.648 101.305C143.32 100.664 142.875 100.164 142.312 99.8047C141.75 99.4453 141.047 99.2656 140.203 99.2656C139.375 99.2656 138.68 99.4453 138.117 99.8047C137.57 100.164 137.133 100.664 136.805 101.305C136.477 101.93 136.242 102.656 136.102 103.484C135.961 104.297 135.891 105.164 135.891 106.086ZM163.688 111.453L168.375 93.6406H173.32L171.562 102.57L166.922 119H162.961L163.688 111.453ZM161.836 93.6406L164.742 111.312L165.07 119H160.266L154.266 93.6406H161.836ZM177.492 110.938L180.422 93.6406H187.992L182.039 119H177.234L177.492 110.938ZM173.883 93.6406L178.617 111.406L179.344 119H175.336L170.789 102.617L169.102 93.6406H173.883ZM218.297 84.875V119H210.07V84.875H218.297ZM228.562 84.875V91.2266H200.039V84.875H228.562ZM225.773 106.578V106.086C225.773 104.227 226.039 102.516 226.57 100.953C227.102 99.375 227.883 98.0078 228.914 96.8516C229.945 95.6953 231.219 94.7969 232.734 94.1562C234.25 93.5 236 93.1719 237.984 93.1719C239.984 93.1719 241.742 93.5 243.258 94.1562C244.789 94.7969 246.07 95.6953 247.102 96.8516C248.133 98.0078 248.914 99.375 249.445 100.953C249.977 102.516 250.242 104.227 250.242 106.086V106.578C250.242 108.422 249.977 110.133 249.445 111.711C248.914 113.273 248.133 114.641 247.102 115.812C246.07 116.969 244.797 117.867 243.281 118.508C241.766 119.148 240.016 119.469 238.031 119.469C236.047 119.469 234.289 119.148 232.758 118.508C231.227 117.867 229.945 116.969 228.914 115.812C227.883 114.641 227.102 113.273 226.57 111.711C226.039 110.133 225.773 108.422 225.773 106.578ZM233.672 106.086V106.578C233.672 107.531 233.742 108.422 233.883 109.25C234.023 110.078 234.258 110.805 234.586 111.43C234.914 112.039 235.359 112.516 235.922 112.859C236.484 113.203 237.188 113.375 238.031 113.375C238.859 113.375 239.547 113.203 240.094 112.859C240.656 112.516 241.102 112.039 241.43 111.43C241.758 110.805 241.992 110.078 242.133 109.25C242.273 108.422 242.344 107.531 242.344 106.578V106.086C242.344 105.164 242.273 104.297 242.133 103.484C241.992 102.656 241.758 101.93 241.43 101.305C241.102 100.664 240.656 100.164 240.094 99.8047C239.531 99.4453 238.828 99.2656 237.984 99.2656C237.156 99.2656 236.461 99.4453 235.898 99.8047C235.352 100.164 234.914 100.664 234.586 101.305C234.258 101.93 234.023 102.656 233.883 103.484C233.742 104.297 233.672 105.164 233.672 106.086ZM266.086 84.875H279.516C282.141 84.875 284.422 85.2656 286.359 86.0469C288.297 86.8281 289.789 87.9844 290.836 89.5156C291.898 91.0469 292.43 92.9375 292.43 95.1875C292.43 97.1406 292.125 98.7734 291.516 100.086C290.906 101.398 290.055 102.484 288.961 103.344C287.883 104.188 286.625 104.883 285.188 105.43L282.492 106.953H271.219L271.172 100.602H279.516C280.562 100.602 281.43 100.414 282.117 100.039C282.805 99.6641 283.32 99.1328 283.664 98.4453C284.023 97.7422 284.203 96.9062 284.203 95.9375C284.203 94.9531 284.023 94.1094 283.664 93.4062C283.305 92.7031 282.773 92.1641 282.07 91.7891C281.383 91.4141 280.531 91.2266 279.516 91.2266H274.312V119H266.086V84.875ZM284.766 119L277.219 103.906L285.938 103.859L293.578 118.648V119H284.766ZM311.836 112.836V93.6406H319.758V119H312.352L311.836 112.836ZM312.586 107.68L314.648 107.633C314.648 109.336 314.445 110.914 314.039 112.367C313.633 113.805 313.031 115.055 312.234 116.117C311.453 117.18 310.484 118.008 309.328 118.602C308.188 119.18 306.867 119.469 305.367 119.469C304.117 119.469 302.969 119.297 301.922 118.953C300.891 118.594 300 118.039 299.25 117.289C298.5 116.523 297.914 115.547 297.492 114.359C297.086 113.156 296.883 111.719 296.883 110.047V93.6406H304.781V110.094C304.781 110.656 304.852 111.141 304.992 111.547C305.133 111.953 305.336 112.297 305.602 112.578C305.867 112.844 306.195 113.047 306.586 113.188C306.992 113.312 307.453 113.375 307.969 113.375C309.156 113.375 310.086 113.125 310.758 112.625C311.43 112.125 311.898 111.445 312.164 110.586C312.445 109.727 312.586 108.758 312.586 107.68ZM331.875 99.0547V119H323.977V93.6406H331.383L331.875 99.0547ZM330.938 105.453L329.086 105.5C329.086 103.562 329.32 101.836 329.789 100.32C330.258 98.7891 330.922 97.4922 331.781 96.4297C332.641 95.3672 333.664 94.5625 334.852 94.0156C336.055 93.4531 337.391 93.1719 338.859 93.1719C340.031 93.1719 341.102 93.3438 342.07 93.6875C343.055 94.0312 343.898 94.5859 344.602 95.3516C345.32 96.1172 345.867 97.1328 346.242 98.3984C346.633 99.6484 346.828 101.195 346.828 103.039V119H338.883V103.016C338.883 102 338.742 101.227 338.461 100.695C338.18 100.148 337.773 99.7734 337.242 99.5703C336.711 99.3672 336.062 99.2656 335.297 99.2656C334.484 99.2656 333.797 99.4219 333.234 99.7344C332.672 100.047 332.219 100.484 331.875 101.047C331.547 101.594 331.305 102.242 331.148 102.992C331.008 103.742 330.938 104.562 330.938 105.453ZM363.773 108.195H357.047C357.047 106.82 357.141 105.609 357.328 104.562C357.531 103.5 357.875 102.547 358.359 101.703C358.844 100.859 359.5 100.078 360.328 99.3594C361.062 98.75 361.695 98.1641 362.227 97.6016C362.758 97.0391 363.164 96.4688 363.445 95.8906C363.727 95.3125 363.867 94.6953 363.867 94.0391C363.867 93.2266 363.75 92.5625 363.516 92.0469C363.297 91.5312 362.961 91.1484 362.508 90.8984C362.07 90.6328 361.516 90.5 360.844 90.5C360.297 90.5 359.781 90.6328 359.297 90.8984C358.828 91.1641 358.445 91.5781 358.148 92.1406C357.852 92.6875 357.688 93.4141 357.656 94.3203H349.711C349.758 91.9922 350.273 90.1016 351.258 88.6484C352.258 87.1797 353.586 86.1094 355.242 85.4375C356.914 84.75 358.781 84.4062 360.844 84.4062C363.125 84.4062 365.086 84.7578 366.727 85.4609C368.367 86.1641 369.625 87.2109 370.5 88.6016C371.375 89.9766 371.812 91.6719 371.812 93.6875C371.812 95.0312 371.555 96.2031 371.039 97.2031C370.539 98.1875 369.859 99.1094 369 99.9688C368.156 100.812 367.211 101.719 366.164 102.688C365.258 103.484 364.641 104.297 364.312 105.125C363.984 105.938 363.805 106.961 363.773 108.195ZM356.086 115.32C356.086 114.195 356.492 113.258 357.305 112.508C358.117 111.742 359.172 111.359 360.469 111.359C361.766 111.359 362.82 111.742 363.633 112.508C364.445 113.258 364.852 114.195 364.852 115.32C364.852 116.445 364.445 117.391 363.633 118.156C362.82 118.906 361.766 119.281 360.469 119.281C359.172 119.281 358.117 118.906 357.305 118.156C356.492 117.391 356.086 116.445 356.086 115.32Z" fill="black"/>
<path d="M1134 0H1348C1356.28 0 1363 6.71573 1363 15V148C1363 156.284 1356.28 163 1348 163H1134V0Z" fill="#0E80D4"/>
<path d="M1260.62 78.8078C1263.81 78.8078 1266.93 79.7552 1269.59 81.5302C1272.25 83.3052 1274.32 85.8281 1275.54 88.7798C1276.76 91.7315 1277.08 94.9795 1276.46 98.1131C1275.84 101.247 1274.3 104.125 1272.04 106.384C1269.78 108.643 1266.9 110.182 1263.77 110.805C1260.63 111.428 1257.39 111.108 1254.43 109.886C1251.48 108.663 1248.96 106.593 1247.18 103.936C1245.41 101.28 1244.46 98.1565 1244.46 94.9616C1244.46 90.6774 1246.16 86.5686 1249.19 83.5392C1252.22 80.5097 1256.33 78.8078 1260.62 78.8078ZM1260.62 73.4232C1256.36 73.4232 1252.19 74.6864 1248.65 77.0531C1245.11 79.4198 1242.35 82.7836 1240.72 86.7192C1239.09 90.6549 1238.66 94.9855 1239.49 99.1636C1240.32 103.342 1242.37 107.179 1245.39 110.192C1248.4 113.204 1252.24 115.255 1256.41 116.086C1260.59 116.917 1264.92 116.491 1268.86 114.861C1272.79 113.23 1276.16 110.47 1278.52 106.928C1280.89 103.386 1282.15 99.2215 1282.15 94.9616C1282.15 89.2493 1279.88 83.7709 1275.85 79.7317C1271.81 75.6924 1266.33 73.4232 1260.62 73.4232Z" fill="white"/>
<path d="M1274.08 46.4999H1220.23C1218.8 46.4999 1217.43 47.0672 1216.42 48.0771C1215.41 49.0869 1214.85 50.4565 1214.85 51.8845V105.731C1214.85 107.159 1215.41 108.528 1216.42 109.538C1217.43 110.548 1218.8 111.115 1220.23 111.115H1231V105.731H1220.23V68.0383H1279.46V51.8845C1279.46 50.4565 1278.89 49.0869 1277.88 48.0771C1276.87 47.0672 1275.5 46.4999 1274.08 46.4999ZM1220.23 62.6537V51.8845H1274.08V62.6537H1220.23Z" fill="white"/>
<path d="M1255.23 86.8848V103.039L1268.69 94.9617L1255.23 86.8848Z" fill="white"/>
</svg>
